<svg xmlns="http://www.w3.org/2000/svg" xmlns:xlink="http://www.w3.org/1999/xlink" viewBox="0 0 817.61 66.52"><defs><style>.cls-1{fill:#c8102e;}.cls-2{fill:url(#Degradado_sin_nombre_11);}.cls-3{fill:url(#Degradado_sin_nombre_11-2);}.cls-4{fill:#fff;}</style><linearGradient id="Degradado_sin_nombre_11" x1="59.22" y1="68.89" x2="112.53" y2="-23.46" gradientUnits="userSpaceOnUse"><stop offset="0" stop-color="#a0102e"/><stop offset="0.37" stop-color="#ba102e"/><stop offset="0.65" stop-color="#c8102e"/></linearGradient><linearGradient id="Degradado_sin_nombre_11-2" x1="-950.14" y1="26.03" x2="-896.82" y2="118.39" gradientTransform="translate(-191.79 94.93) rotate(180)" xlink:href="#Degradado_sin_nombre_11"/></defs><title>Consulta ciudadano</title><g id="Capa_2" data-name="Capa 2"><rect class="cls-1" y="28.42" width="817.61" height="38.33"/><polygon class="cls-2" points="0 66.75 0 66.75 0 28.43 137.8 28.43 154.09 47.59 137.8 66.75 0 66.75"/><polygon class="cls-3" points="817.57 28.43 817.57 28.43 817.57 66.75 679.77 66.75 663.47 47.59 679.77 28.43 817.57 28.43"/><path class="cls-4" d="M124.69,58.51a7.79,7.79,0,0,1-3.79-.92,8.62,8.62,0,0,1-2.8-2.43,10.76,10.76,0,0,1-1.73-3.45,13.39,13.39,0,0,1-.59-4,14,14,0,0,1,1.09-5.32,16.81,16.81,0,0,1,3-4.88A15.81,15.81,0,0,1,124.53,34a12.73,12.73,0,0,1,5.85-1.37,9.6,9.6,0,0,1,2.93.42,7.87,7.87,0,0,1,2.32,1.15,6.42,6.42,0,0,1,1.65,1.76,7.82,7.82,0,0,1,1,2.25l-2.91,1.65a6,6,0,0,0-.86-2.05,5.16,5.16,0,0,0-1.35-1.33,5.64,5.64,0,0,0-1.69-.72,8.14,8.14,0,0,0-1.82-.21,8.48,8.48,0,0,0-4.28,1.11A11.75,11.75,0,0,0,122,39.5a13.42,13.42,0,0,0-2.18,3.87,12.21,12.21,0,0,0-.77,4.17,10.83,10.83,0,0,0,.43,3.09,7.91,7.91,0,0,0,1.26,2.57,6.12,6.12,0,0,0,2,1.75,5.56,5.56,0,0,0,2.7.65,8.65,8.65,0,0,0,2-.26,7.86,7.86,0,0,0,2.08-.81,10.66,10.66,0,0,0,2-1.4,9,9,0,0,0,1.72-2l2.38,1.47a10.3,10.3,0,0,1-2.16,2.54A14.39,14.39,0,0,1,130.7,57a13.85,13.85,0,0,1-3,1.15A11.81,11.81,0,0,1,124.69,58.51Z"/><path class="cls-4" d="M145.63,58.65a7.21,7.21,0,0,1-3.08-.63,6.61,6.61,0,0,1-2.26-1.69,6.93,6.93,0,0,1-1.39-2.48,9.73,9.73,0,0,1-.47-3,10.86,10.86,0,0,1,.9-4.35,12.37,12.37,0,0,1,2.45-3.7,11.82,11.82,0,0,1,3.61-2.59,10.15,10.15,0,0,1,4.37-1,7.37,7.37,0,0,1,3.08.63,6.93,6.93,0,0,1,2.28,1.69,7.33,7.33,0,0,1,1.42,2.5,9.35,9.35,0,0,1,.49,3.06,10.79,10.79,0,0,1-.9,4.32,12.36,12.36,0,0,1-6.1,6.29A10.17,10.17,0,0,1,145.63,58.65Zm.61-2.73a6,6,0,0,0,2.73-.68,8.45,8.45,0,0,0,2.39-1.84,9.16,9.16,0,0,0,1.71-2.68,8.27,8.27,0,0,0,.65-3.25,7.36,7.36,0,0,0-.32-2.2,5.55,5.55,0,0,0-.92-1.74A4.53,4.53,0,0,0,151,42.36a4,4,0,0,0-1.85-.43,6,6,0,0,0-2.72.68,8.58,8.58,0,0,0-2.41,1.85,9.58,9.58,0,0,0-1.71,2.72,8.32,8.32,0,0,0-.64,3.24,7,7,0,0,0,.32,2.19,5.51,5.51,0,0,0,.92,1.75,4.27,4.27,0,0,0,1.42,1.15A4.18,4.18,0,0,0,146.24,55.92Z"/><path class="cls-4" d="M162.6,39.52h2.88l-.86,4a10.91,10.91,0,0,1,3.7-3.17,9.7,9.7,0,0,1,4.6-1.19,3.79,3.79,0,0,1,3.19,1.21,5.19,5.19,0,0,1,.91,3.22,11.87,11.87,0,0,1-.12,1.65c-.09.58-.19,1.18-.31,1.8l-2.37,11.22h-3.17l2.23-10.5a13.15,13.15,0,0,0,.33-2.7c0-2-.85-3.05-2.56-3.05a5.23,5.23,0,0,0-1.88.37,9.48,9.48,0,0,0-1.93,1A9.28,9.28,0,0,0,165.52,45a9.13,9.13,0,0,0-1.34,2l-2.41,11.33h-3.16Z"/><path class="cls-4" d="M185.22,58.65a11.93,11.93,0,0,1-4.1-.7,7.78,7.78,0,0,1-3.16-2l1.8-2.12a9.2,9.2,0,0,0,2.73,1.89,7.79,7.79,0,0,0,3.16.63,5.75,5.75,0,0,0,3.49-1,3,3,0,0,0,1.33-2.59,1.78,1.78,0,0,0-1.06-1.69A17,17,0,0,0,186.19,50c-.88-.24-1.65-.48-2.3-.72a7.2,7.2,0,0,1-1.62-.83,3.23,3.23,0,0,1-1-1.06,3,3,0,0,1-.32-1.42,5.8,5.8,0,0,1,.68-2.82A6.7,6.7,0,0,1,183.48,41a8.51,8.51,0,0,1,2.62-1.33,10.48,10.48,0,0,1,3.12-.47,8.88,8.88,0,0,1,3.59.69,7.15,7.15,0,0,1,2.59,1.8l-1.83,1.9A6.06,6.06,0,0,0,191.35,42a7,7,0,0,0-2.71-.52,6.91,6.91,0,0,0-1.74.21,4.54,4.54,0,0,0-1.44.67,3.26,3.26,0,0,0-1,1.13,3.35,3.35,0,0,0-.36,1.58,1.57,1.57,0,0,0,.84,1.48,13.53,13.53,0,0,0,2.72,1c1,.26,1.85.53,2.61.79a7.66,7.66,0,0,1,1.88.92,3.63,3.63,0,0,1,1.14,1.18,3.24,3.24,0,0,1,.38,1.6,5.67,5.67,0,0,1-.63,2.68,6.48,6.48,0,0,1-1.75,2.09,8.26,8.26,0,0,1-2.68,1.37A11.5,11.5,0,0,1,185.22,58.65Z"/><path class="cls-4" d="M201.48,58.65q-4.39,0-4.39-4.75a15.16,15.16,0,0,1,.4-3.12l2.41-11.26H203l-2.27,10.64a11.75,11.75,0,0,0-.32,2.49q0,3.27,2.8,3.27a6.51,6.51,0,0,0,3.65-1.24,10.14,10.14,0,0,0,3.11-3.4l2.48-11.76h3.17l-3.17,14.89c0,.09,0,.18,0,.25a1.5,1.5,0,0,0,0,.22c0,.43.27.66.79.68l-.57,2.73c-.27.05-.5.09-.7.11s-.39,0-.56,0A2.22,2.22,0,0,1,209.9,58a1.45,1.45,0,0,1-.51-1.16c0-.21,0-.5.07-.88s.16-.94.33-1.71A11.33,11.33,0,0,1,206,57.52,9.68,9.68,0,0,1,201.48,58.65Z"/><path class="cls-4" d="M220.69,58.54a3.36,3.36,0,0,1-2.33-.73,2.68,2.68,0,0,1-.8-2.07,5.78,5.78,0,0,1,0-.58,3.82,3.82,0,0,1,.11-.57L222.48,32h3.13l-4.53,21.4c0,.12,0,.23-.05.34a1.88,1.88,0,0,0,0,.34c0,1,.54,1.55,1.62,1.55a3.89,3.89,0,0,0,.93-.13,8.36,8.36,0,0,0,1-.3l-.1,2.55a10.89,10.89,0,0,1-1.91.54A10.08,10.08,0,0,1,220.69,58.54Z"/><path class="cls-4" d="M231.69,58.54a4.06,4.06,0,0,1-2.43-.68,2.52,2.52,0,0,1-.95-2.19,5.51,5.51,0,0,1,.11-1.05L231.11,42h-2.44l.54-2.48h2.41L233,33.26h3.16l-1.33,6.26h4L238.24,42h-4L231.8,53.65a2.81,2.81,0,0,0-.07.54,1.27,1.27,0,0,0,.46,1.1,1.91,1.91,0,0,0,1.15.34,4.69,4.69,0,0,0,1.69-.3,11.47,11.47,0,0,0,1.12-.49l.18,2.52a6.26,6.26,0,0,1-1.92.83A10.45,10.45,0,0,1,231.69,58.54Z"/><path class="cls-4" d="M246.69,58.65a7.54,7.54,0,0,1-3.13-.61,6.69,6.69,0,0,1-2.32-1.69,7.15,7.15,0,0,1-1.44-2.52,9.71,9.71,0,0,1-.49-3.09,11.19,11.19,0,0,1,.87-4.35,11.71,11.71,0,0,1,6-6.24,10.7,10.7,0,0,1,4.53-1,7.3,7.3,0,0,1,4.48,1.28,4.44,4.44,0,0,1,1.71,3.8,4.72,4.72,0,0,1-2.5,4.33q-2.5,1.45-7.75,1.46c-.58,0-1.22,0-1.93,0s-1.44-.07-2.21-.14a3,3,0,0,0,0,.43v.39a7.82,7.82,0,0,0,.28,2.13,5.57,5.57,0,0,0,.87,1.78,4.19,4.19,0,0,0,1.45,1.22,4.51,4.51,0,0,0,2.07.45,6.76,6.76,0,0,0,3.24-.85,6.43,6.43,0,0,0,2.48-2.28l2.55.75a8.56,8.56,0,0,1-1.61,1.91,11.76,11.76,0,0,1-4.55,2.48A9.67,9.67,0,0,1,246.69,58.65Zm3.77-17.08a7,7,0,0,0-2.78.52,7.26,7.26,0,0,0-2.16,1.38,8.48,8.48,0,0,0-1.55,2,11.34,11.34,0,0,0-1,2.24c.72.08,1.4.12,2,.15l1.78,0a18.32,18.32,0,0,0,3.43-.27,7.79,7.79,0,0,0,2.25-.75,3.24,3.24,0,0,0,1.24-1.15,2.94,2.94,0,0,0,.38-1.46,2.23,2.23,0,0,0-1-2A4.71,4.71,0,0,0,250.46,41.57Z"/><path class="cls-4" d="M275,58.65a7.54,7.54,0,0,1-3.13-.61,6.69,6.69,0,0,1-2.32-1.69,7.15,7.15,0,0,1-1.44-2.52,9.71,9.71,0,0,1-.49-3.09,11.19,11.19,0,0,1,.87-4.35,11.5,11.5,0,0,1,2.41-3.69,11.68,11.68,0,0,1,3.63-2.55,10.7,10.7,0,0,1,4.53-1,7.3,7.3,0,0,1,4.48,1.28,4.44,4.44,0,0,1,1.71,3.8,4.72,4.72,0,0,1-2.5,4.33q-2.5,1.45-7.75,1.46c-.58,0-1.22,0-1.93,0s-1.44-.07-2.21-.14a3,3,0,0,0,0,.43v.39a7.83,7.83,0,0,0,.29,2.13,5.37,5.37,0,0,0,.87,1.78,4.1,4.1,0,0,0,1.45,1.22,4.51,4.51,0,0,0,2.07.45,6.76,6.76,0,0,0,3.24-.85,6.43,6.43,0,0,0,2.48-2.28l2.55.75a8.35,8.35,0,0,1-1.62,1.91A10.92,10.92,0,0,1,280,57.3a11.69,11.69,0,0,1-2.43,1A9.54,9.54,0,0,1,275,58.65Zm3.77-17.08a7.11,7.11,0,0,0-2.79.52,7.34,7.34,0,0,0-2.15,1.38,8.48,8.48,0,0,0-1.55,2,11.34,11.34,0,0,0-1,2.24c.72.08,1.4.12,2,.15l1.78,0a18.37,18.37,0,0,0,3.44-.27,7.79,7.79,0,0,0,2.25-.75A3.24,3.24,0,0,0,282,45.69a2.94,2.94,0,0,0,.37-1.46,2.24,2.24,0,0,0-1-2A4.71,4.71,0,0,0,278.73,41.57Z"/><path class="cls-4" d="M290.17,58.54a3.33,3.33,0,0,1-2.32-.73,2.65,2.65,0,0,1-.81-2.07,3.86,3.86,0,0,1,0-.58,5.67,5.67,0,0,1,.1-.57L292,32h3.13l-4.54,21.4c0,.12,0,.23-.05.34s0,.22,0,.34c0,1,.54,1.55,1.62,1.55a4,4,0,0,0,.94-.13,8.89,8.89,0,0,0,1-.3L294,57.79a10.65,10.65,0,0,1-1.91.54A10,10,0,0,1,290.17,58.54Z"/><path class="cls-4" d="M309.91,32.76h4.93l-2.19,10.32h10.64l2.2-10.32h4.92L325,58.29h-4.92l2.3-10.89H311.71l-2.3,10.89h-4.93Z"/><path class="cls-4" d="M333.79,39.45h4.82l-4,18.84H329.8ZM335.38,32h4.81l-1,4.78h-4.82Z"/><path class="cls-4" d="M345.66,58.65a12.16,12.16,0,0,1-4.28-.75,7.93,7.93,0,0,1-3.23-2.16l2.4-3a8.58,8.58,0,0,0,5.72,2.48,3.91,3.91,0,0,0,2.38-.65,2.13,2.13,0,0,0,.86-1.8,1.39,1.39,0,0,0-.77-1.24,12.46,12.46,0,0,0-2.5-.95c-1-.29-1.78-.57-2.47-.84a8,8,0,0,1-1.69-.92,3.22,3.22,0,0,1-1-1.14,3.29,3.29,0,0,1-.3-1.45,6.14,6.14,0,0,1,.68-2.9,6.88,6.88,0,0,1,1.85-2.24,8.77,8.77,0,0,1,2.72-1.46,10.83,10.83,0,0,1,6.9.09,7.53,7.53,0,0,1,2.88,2l-2.55,2.91A8.18,8.18,0,0,0,351,43a6,6,0,0,0-2.4-.51,3.79,3.79,0,0,0-2.17.62,2.09,2.09,0,0,0-.92,1.87,1.27,1.27,0,0,0,.68,1.15,11.59,11.59,0,0,0,2.31.86,14.67,14.67,0,0,1,4.46,1.85,3.29,3.29,0,0,1,1.43,2.83,6.15,6.15,0,0,1-.64,2.82,6.53,6.53,0,0,1-1.8,2.19,8.86,8.86,0,0,1-2.75,1.44A11.24,11.24,0,0,1,345.66,58.65Z"/><path class="cls-4" d="M361.92,58.62a4.8,4.8,0,0,1-2.83-.78A2.87,2.87,0,0,1,358,55.31a6.17,6.17,0,0,1,.14-1.33l2.3-10.83H358.1l.8-3.7h2.3l1.29-6.12h4.82L366,39.45h3.77l-.79,3.7h-3.74l-2,9.21c0,.12,0,.22,0,.3a2.45,2.45,0,0,0,0,.27,1.14,1.14,0,0,0,.38,1,1.53,1.53,0,0,0,1,.29A4.64,4.64,0,0,0,366,54q.71-.24,1.2-.45l.15,3.81a14.05,14.05,0,0,1-2.52.9A11.33,11.33,0,0,1,361.92,58.62Z"/><path class="cls-4" d="M377.42,58.65a8.18,8.18,0,0,1-3.33-.63,6.79,6.79,0,0,1-2.37-1.7,7.24,7.24,0,0,1-1.44-2.5,9.36,9.36,0,0,1-.49-3,11.08,11.08,0,0,1,.89-4.33,12,12,0,0,1,6.16-6.37,11.18,11.18,0,0,1,4.72-1,8.08,8.08,0,0,1,3.29.63,7.28,7.28,0,0,1,2.39,1.69,7,7,0,0,1,1.45,2.5,9.35,9.35,0,0,1,.49,3.06,10.94,10.94,0,0,1-.88,4.32A12.15,12.15,0,0,1,385.85,55a12,12,0,0,1-3.72,2.62A11.17,11.17,0,0,1,377.42,58.65Zm.86-4.1a4.57,4.57,0,0,0,2.18-.56,6.69,6.69,0,0,0,1.89-1.49,7.46,7.46,0,0,0,1.83-4.93,4.93,4.93,0,0,0-.94-3.14,3.06,3.06,0,0,0-2.55-1.21,4.61,4.61,0,0,0-2.17.56,6.49,6.49,0,0,0-1.89,1.51,7.66,7.66,0,0,0-1.33,2.21,7.13,7.13,0,0,0-.51,2.7,5,5,0,0,0,.94,3.15A3.05,3.05,0,0,0,378.28,54.55Zm4.57-17.62-3.13-.61L382.45,32h4.46Z"/><path class="cls-4" d="M394.18,39.45h4.42l-.86,4a11.9,11.9,0,0,1,3.06-3.07,6,6,0,0,1,3.38-1.13h.54l.32.06-.9,4.28a9.74,9.74,0,0,0-3.87.84,6.39,6.39,0,0,0-2.85,2.43L395,58.29h-4.82Z"/><path class="cls-4" d="M407.77,39.45h4.82l-4,18.84h-4.82ZM409.35,32h4.82l-1,4.78h-4.82Z"/><path class="cls-4" d="M421.22,58.65a8.21,8.21,0,0,1-3.31-.63,6.8,6.8,0,0,1-3.86-4.22,9.35,9.35,0,0,1-.49-3.06,11.21,11.21,0,0,1,.88-4.33,12,12,0,0,1,2.45-3.73,11.86,11.86,0,0,1,3.74-2.59,11.6,11.6,0,0,1,4.73-1,7.79,7.79,0,0,1,4.76,1.33,6.23,6.23,0,0,1,2.36,3.49l-5,1.44a3.2,3.2,0,0,0-1.15-1.6,3.32,3.32,0,0,0-1.95-.56,5,5,0,0,0-2.17.52,6,6,0,0,0-1.87,1.46,7.67,7.67,0,0,0-1.32,2.21,7.55,7.55,0,0,0-.5,2.75,5,5,0,0,0,1,3.17,3,3,0,0,0,2.53,1.22,4.45,4.45,0,0,0,2.28-.65,4.9,4.9,0,0,0,1.75-1.58l4.39,1.44a10.93,10.93,0,0,1-3.82,3.53A10.78,10.78,0,0,1,421.22,58.65Z"/><path class="cls-4" d="M440.5,58.65a8.18,8.18,0,0,1-3.33-.63,7,7,0,0,1-2.37-1.7,7.4,7.4,0,0,1-1.44-2.5,9.35,9.35,0,0,1-.48-3,11.06,11.06,0,0,1,.88-4.33,12,12,0,0,1,6.17-6.37,11.1,11.1,0,0,1,4.71-1,8.08,8.08,0,0,1,3.29.63,7.28,7.28,0,0,1,2.39,1.69,6.85,6.85,0,0,1,1.45,2.5,9.35,9.35,0,0,1,.49,3.06,10.94,10.94,0,0,1-.88,4.32A12.15,12.15,0,0,1,448.93,55a12,12,0,0,1-3.72,2.62A11.17,11.17,0,0,1,440.5,58.65Zm.86-4.1a4.54,4.54,0,0,0,2.18-.56,6.42,6.42,0,0,0,1.89-1.49,7.46,7.46,0,0,0,1.83-4.93,5,5,0,0,0-.93-3.14,3.09,3.09,0,0,0-2.56-1.21,4.61,4.61,0,0,0-2.17.56,6.49,6.49,0,0,0-1.89,1.51,7.66,7.66,0,0,0-1.33,2.21,7.13,7.13,0,0,0-.51,2.7,5,5,0,0,0,.94,3.15A3.05,3.05,0,0,0,441.36,54.55Z"/><path class="cls-4" d="M463.66,32.76h5.22l2.23,19.31,10.35-19.31h5.22L471.86,58.29h-4.17Z"/><path class="cls-4" d="M490,58.65a8.35,8.35,0,0,1-3.21-.59,7,7,0,0,1-4-4.17,9.32,9.32,0,0,1-.52-3.19,10.87,10.87,0,0,1,.92-4.44,11.73,11.73,0,0,1,2.51-3.68,12,12,0,0,1,3.78-2.52,11.8,11.8,0,0,1,4.69-.94,8,8,0,0,1,4.88,1.35,4.56,4.56,0,0,1,1.81,3.9q0,6.09-10.86,6.08h-1.33c-.46,0-.94,0-1.44-.07v.47a5.16,5.16,0,0,0,.86,3.09,3.17,3.17,0,0,0,2.74,1.19,5.6,5.6,0,0,0,2.71-.69,5.32,5.32,0,0,0,2-1.9l3.81,1.19a10.56,10.56,0,0,1-1.76,2,12.06,12.06,0,0,1-2.29,1.57,12.68,12.68,0,0,1-2.61,1A10.8,10.8,0,0,1,490,58.65Zm3.49-16a5,5,0,0,0-1.94.38,5.46,5.46,0,0,0-1.6,1,7.41,7.41,0,0,0-1.24,1.52,8.06,8.06,0,0,0-.86,1.83c.38,0,.75,0,1.11,0h1.12a20.31,20.31,0,0,0,2.93-.18,6.77,6.77,0,0,0,1.94-.54,2.68,2.68,0,0,0,1.06-.85,2,2,0,0,0,.32-1.13,1.75,1.75,0,0,0-.79-1.57A3.71,3.71,0,0,0,493.51,42.61Z"/><path class="cls-4" d="M507,32h4.82l-2.34,10.9a10,10,0,0,1,3.27-2.83,8.3,8.3,0,0,1,3.92-1,5.86,5.86,0,0,1,2.11.34,3.6,3.6,0,0,1,1.37.94,3.48,3.48,0,0,1,.73,1.4,6.5,6.5,0,0,1,.22,1.75A12.33,12.33,0,0,1,521,45a12.91,12.91,0,0,1-.27,1.51l-2.48,11.76h-4.82l2.23-10.57a8.78,8.78,0,0,0,.21-1.76c0-1.73-.73-2.59-2.19-2.59a3.5,3.5,0,0,0-1.29.28,6.86,6.86,0,0,0-1.43.81,9.6,9.6,0,0,0-1.33,1.24,7.73,7.73,0,0,0-1.06,1.59l-2.34,11h-4.81Z"/><path class="cls-4" d="M526.35,39.45h4.82l-4,18.84h-4.82ZM527.93,32h4.82l-1,4.78h-4.82Z"/><path class="cls-4" d="M539.8,58.65a8.18,8.18,0,0,1-3.31-.63,7,7,0,0,1-2.41-1.7,7.19,7.19,0,0,1-1.46-2.52,9.61,9.61,0,0,1-.48-3.06,11,11,0,0,1,.88-4.33,11.81,11.81,0,0,1,6.19-6.32,11.57,11.57,0,0,1,4.73-1,7.81,7.81,0,0,1,4.76,1.33,6.28,6.28,0,0,1,2.36,3.49l-5,1.44a3.14,3.14,0,0,0-1.15-1.6,3.29,3.29,0,0,0-1.94-.56,5,5,0,0,0-2.18.52A6.08,6.08,0,0,0,539,45.2a7.65,7.65,0,0,0-1.31,2.21,7.55,7.55,0,0,0-.5,2.75,5,5,0,0,0,1,3.17,3,3,0,0,0,2.54,1.22,4.5,4.5,0,0,0,2.28-.65,4.79,4.79,0,0,0,1.74-1.58L549,53.76a10.87,10.87,0,0,1-9.24,4.89Z"/><path class="cls-4" d="M556.31,58.65q-4.42,0-4.43-4.6a10.19,10.19,0,0,1,.09-1.31q.09-.7.27-1.5l2.52-11.79h4.78L557.28,50.2c-.07.36-.13.68-.18,1A4.81,4.81,0,0,0,557,52c0,1.7.71,2.55,2.15,2.55a5.16,5.16,0,0,0,2.65-.84,8.39,8.39,0,0,0,2.53-2.57l2.48-11.69h4.82l-2.84,13.3c0,.12,0,.24-.05.35s0,.21,0,.3c0,.5.29.77.86.79l-.86,4.1-1.13.18a5.85,5.85,0,0,1-.88.07,3.27,3.27,0,0,1-2-.5,1.77,1.77,0,0,1-.71-1.55c0-.19,0-.4,0-.64a7.85,7.85,0,0,1,.22-1.08,10.82,10.82,0,0,1-3.69,2.91A10,10,0,0,1,556.31,58.65Z"/><path class="cls-4" d="M576.84,58.58a4.09,4.09,0,0,1-2.8-.85,3,3,0,0,1-1-2.42c0-.22,0-.43,0-.65s.06-.46.11-.72L577.89,32h4.78l-4.28,20.21c0,.12,0,.24-.06.36s0,.24,0,.36a1.3,1.3,0,0,0,1.47,1.47,3.32,3.32,0,0,0,.92-.14,7.22,7.22,0,0,0,1-.36l-.15,3.67a10.81,10.81,0,0,1-2.35.72A12.49,12.49,0,0,1,576.84,58.58Z"/><path class="cls-4" d="M590.62,58.65a6.57,6.57,0,0,1-2.83-.59,6.23,6.23,0,0,1-2.1-1.64A7.07,7.07,0,0,1,584.38,54a10,10,0,0,1-.45-3,12.16,12.16,0,0,1,.84-4.48A12.92,12.92,0,0,1,587,42.68a11.13,11.13,0,0,1,3.29-2.59,8.45,8.45,0,0,1,3.92-1,5.44,5.44,0,0,1,3.31,1,5.08,5.08,0,0,1,1.87,2.63l.72-3.24H605l-2.81,13.23a2.73,2.73,0,0,0-.11.65c0,.5.29.77.87.79l-.87,4.1-1.13.18a5.56,5.56,0,0,1-.84.07,3.39,3.39,0,0,1-2-.53,1.88,1.88,0,0,1-.74-1.62,6.48,6.48,0,0,1,.22-1.37,9.1,9.1,0,0,1-3.22,2.71A8.24,8.24,0,0,1,590.62,58.65Zm2.15-4.1a4.08,4.08,0,0,0,1.32-.23,6.06,6.06,0,0,0,1.35-.67,8.09,8.09,0,0,0,1.22-1,6.42,6.42,0,0,0,1-1.26l.93-4.5a4.43,4.43,0,0,0-1.25-2.62,3.31,3.31,0,0,0-2.41-1.05,4.53,4.53,0,0,0-2.23.6,6.33,6.33,0,0,0-1.89,1.58,8.37,8.37,0,0,0-1.3,2.23,7,7,0,0,0-.48,2.53,4.8,4.8,0,0,0,1,3.13A3.34,3.34,0,0,0,592.77,54.55Z"/><path class="cls-4" d="M609.68,39.45h4.42l-.86,4a11.9,11.9,0,0,1,3.06-3.07,6,6,0,0,1,3.38-1.13h.54l.32.06-.9,4.28a9.74,9.74,0,0,0-3.87.84,6.47,6.47,0,0,0-2.86,2.43l-2.41,11.4h-4.81Z"/><path class="cls-4" d="M640.93,32.76h2.77l4.43,25.53h-3.46l-1.22-7.48h-10l-4.35,7.48h-3.45Zm2.38,15.53L641.54,36.5,634.6,48.29Z"/><path class="cls-4" d="M657.08,58.65a5.45,5.45,0,0,1-2.62-.61,6,6,0,0,1-2-1.65,7.67,7.67,0,0,1-1.2-2.43,10.15,10.15,0,0,1-.41-3,11.32,11.32,0,0,1,.91-4.51,12.8,12.8,0,0,1,2.43-3.76,11.83,11.83,0,0,1,3.43-2.57,8.84,8.84,0,0,1,4-1,5.77,5.77,0,0,1,5.65,3.89l.75-3.56h2.81l-4.75,22.41c0,.09,0,.18-.06.25a1.48,1.48,0,0,0,0,.21c0,.43.26.66.79.69l-.58,2.73a10.41,10.41,0,0,1-1.51.11,2.3,2.3,0,0,1-1.58-.54,1.82,1.82,0,0,1-.61-1.44,2.81,2.81,0,0,1,.07-.54l1.87-8.81a12,12,0,0,1-3.49,3A8.07,8.07,0,0,1,657.08,58.65Zm1.66-2.73a5.81,5.81,0,0,0,3.48-1.17,12.44,12.44,0,0,0,2.84-2.86l1.16-5.39a4.46,4.46,0,0,0-.36-1.75,4.61,4.61,0,0,0-1-1.45,5,5,0,0,0-1.41-1,3.74,3.74,0,0,0-1.69-.38,6,6,0,0,0-2.86.74,8.22,8.22,0,0,0-2.42,1.94,9.75,9.75,0,0,0-1.68,2.73,8.11,8.11,0,0,0-.63,3.11,7.33,7.33,0,0,0,.31,2.14,5,5,0,0,0,.9,1.73,4.45,4.45,0,0,0,1.42,1.17A4,4,0,0,0,658.74,55.92Z"/><path class="cls-4" d="M677.22,58.65c-2.92,0-4.39-1.58-4.39-4.75a15.89,15.89,0,0,1,.4-3.12l2.41-11.26h3.13L676.5,50.16a12.44,12.44,0,0,0-.32,2.49q0,3.27,2.8,3.27a6.51,6.51,0,0,0,3.65-1.24,10,10,0,0,0,3.11-3.4l2.49-11.76h3.16l-3.16,14.89a1.65,1.65,0,0,0-.08.47c0,.43.27.66.8.68l-.58,2.73c-.26.05-.5.09-.7.11s-.39,0-.56,0a2.22,2.22,0,0,1-1.47-.43,1.45,1.45,0,0,1-.51-1.16,7.41,7.41,0,0,1,.08-.88c0-.37.15-.94.32-1.71a11.33,11.33,0,0,1-3.81,3.26A9.65,9.65,0,0,1,677.22,58.65Z"/><path class="cls-4" d="M696.57,39.52h3.17l-4,18.77h-3.16Zm2.34-3.13L697,35.67,699.7,32h3.13Z"/><path class="cls-1" d="M11.85,5.46a28.53,28.53,0,0,1,4.88-.36,7.93,7.93,0,0,1,5.18,1.43,5,5,0,0,1,1.71,3.87,5.32,5.32,0,0,1-1.5,4,7.72,7.72,0,0,1-5.54,1.87,8.8,8.8,0,0,1-1.56-.1v6.6H11.85ZM15,13.63a6.66,6.66,0,0,0,1.56.13c2.39,0,3.85-1.17,3.85-3.23s-1.36-3-3.57-3A8.6,8.6,0,0,0,15,7.7Z"/><path class="cls-1" d="M35.53,19.71a20.25,20.25,0,0,0,.18,3H32.83l-.21-1.4h-.08A4.69,4.69,0,0,1,28.8,23a3.76,3.76,0,0,1-4-3.77c0-3.2,2.83-4.81,7.51-4.78v-.21c0-.83-.33-2.21-2.57-2.21a6.78,6.78,0,0,0-3.41.93l-.62-2.08a9.15,9.15,0,0,1,4.58-1.11c4.05,0,5.22,2.57,5.22,5.33Zm-3.12-3.14C30.15,16.51,28,17,28,18.93a1.68,1.68,0,0,0,1.82,1.82A2.59,2.59,0,0,0,32.31,19a2.19,2.19,0,0,0,.1-.7Z"/><path class="cls-1" d="M38.91,14.17c0-1.71,0-2.93-.1-4.08h2.78l.1,2.42h.11a3.77,3.77,0,0,1,3.46-2.7,3.48,3.48,0,0,1,.75.07v3a4.66,4.66,0,0,0-.94-.1,2.82,2.82,0,0,0-2.86,2.41,5.81,5.81,0,0,0-.1,1v6.55h-3.2Z"/><path class="cls-1" d="M57.76,19.71a20.25,20.25,0,0,0,.18,3H55.06l-.21-1.4h-.08A4.69,4.69,0,0,1,51,23a3.76,3.76,0,0,1-4-3.77c0-3.2,2.83-4.81,7.51-4.78v-.21c0-.83-.33-2.21-2.57-2.21a6.78,6.78,0,0,0-3.41.93L48,10.92a9.15,9.15,0,0,1,4.58-1.11c4.05,0,5.22,2.57,5.22,5.33Zm-3.12-3.14c-2.26-.06-4.42.44-4.42,2.36A1.68,1.68,0,0,0,52,20.75,2.59,2.59,0,0,0,54.54,19a2.19,2.19,0,0,0,.1-.7Z"/><path class="cls-1" d="M75.83,22.36a9,9,0,0,1-3.59.68c-3.95,0-6.52-2.55-6.52-6.47s2.6-6.76,7-6.76a8.18,8.18,0,0,1,3.1.59l-.57,2.4a5.56,5.56,0,0,0-2.42-.5A3.78,3.78,0,0,0,69,16.41a3.76,3.76,0,0,0,3.88,4.08A6.23,6.23,0,0,0,75.39,20Z"/><path class="cls-1" d="M90,16.31C90,21,86.73,23,83.5,23a6.12,6.12,0,0,1-6.34-6.53c0-4.16,2.73-6.7,6.55-6.7S90,12.46,90,16.31Zm-9.54.13c0,2.44,1.2,4.29,3.15,4.29s3.09-1.8,3.09-4.35c0-2-.88-4.23-3.07-4.23S80.46,14.33,80.46,16.44Z"/><path class="cls-1" d="M92.63,13.86c0-1.45,0-2.68-.11-3.77h2.81l.16,1.9h.08a4.55,4.55,0,0,1,4-2.18c2.21,0,4.49,1.43,4.49,5.43v7.51H100.9V15.6c0-1.82-.68-3.19-2.42-3.19A2.69,2.69,0,0,0,96,14.28a3.33,3.33,0,0,0-.13,1v7.43H92.63Z"/><path class="cls-1" d="M119.54,16.31c0,4.65-3.28,6.73-6.5,6.73a6.13,6.13,0,0,1-6.35-6.53c0-4.16,2.73-6.7,6.56-6.7S119.54,12.46,119.54,16.31Zm-9.54.13c0,2.44,1.19,4.29,3.14,4.29s3.1-1.8,3.1-4.35c0-2-.89-4.23-3.07-4.23S110,14.33,110,16.44Z"/><path class="cls-1" d="M131.47,22.36a9,9,0,0,1-3.59.68c-3.95,0-6.52-2.55-6.52-6.47s2.6-6.76,7-6.76a8.18,8.18,0,0,1,3.1.59l-.57,2.4a5.56,5.56,0,0,0-2.42-.5,3.78,3.78,0,0,0-3.88,4.11,3.76,3.76,0,0,0,3.88,4.08A6.23,6.23,0,0,0,131,20Z"/><path class="cls-1" d="M135.87,17.32c.07,2.29,1.87,3.28,3.9,3.28a9.42,9.42,0,0,0,3.51-.58l.46,2.21a11.7,11.7,0,0,1-4.42.81c-4.1,0-6.52-2.55-6.52-6.42,0-3.51,2.13-6.81,6.19-6.81s5.46,3.38,5.46,6.16a7.94,7.94,0,0,1-.11,1.35Zm5.56-2.24c0-1.17-.49-3.09-2.63-3.09-2,0-2.8,1.79-2.93,3.09Z"/><path class="cls-1" d="M147,14.17c0-1.71,0-2.93-.1-4.08h2.78l.1,2.42h.11a3.77,3.77,0,0,1,3.45-2.7,3.51,3.51,0,0,1,.76.07v3a4.66,4.66,0,0,0-.94-.1,2.82,2.82,0,0,0-2.86,2.41,5.81,5.81,0,0,0-.1,1v6.55H147Z"/><path class="cls-1" d="M163.92,17.32c.08,2.29,1.87,3.28,3.9,3.28a9.38,9.38,0,0,0,3.51-.58l.47,2.21a11.7,11.7,0,0,1-4.42.81c-4.11,0-6.53-2.55-6.53-6.42,0-3.51,2.13-6.81,6.19-6.81s5.46,3.38,5.46,6.16a8.17,8.17,0,0,1-.1,1.35Zm5.56-2.24c0-1.17-.49-3.09-2.62-3.09a3.12,3.12,0,0,0-2.94,3.09Z"/><path class="cls-1" d="M175.07,4.29h3.23V22.75h-3.23Z"/><path class="cls-1" d="M187.14,4.29h3.22v7.54h0A4.36,4.36,0,0,1,192,10.38a4.27,4.27,0,0,1,2.18-.57c2.16,0,4.42,1.43,4.42,5.48v7.46h-3.2V15.66c0-1.85-.67-3.23-2.44-3.23a2.6,2.6,0,0,0-2.47,1.8,2.75,2.75,0,0,0-.13,1v7.56h-3.22Z"/><path class="cls-1" d="M205.41,6.56a1.69,1.69,0,0,1-1.82,1.71,1.67,1.67,0,0,1-1.76-1.71,1.79,1.79,0,0,1,3.58,0ZM202,22.75V10.09h3.22V22.75Z"/><path class="cls-1" d="M208.51,19.82a7.18,7.18,0,0,0,3.25.91c1.4,0,2-.58,2-1.41s-.52-1.3-2.08-1.84c-2.47-.86-3.51-2.21-3.49-3.7,0-2.23,1.85-4,4.79-4a7.44,7.44,0,0,1,3.35.75l-.62,2.26a5.72,5.72,0,0,0-2.68-.73c-1.15,0-1.77.55-1.77,1.33s.6,1.2,2.21,1.77c2.29.83,3.36,2,3.38,3.87,0,2.29-1.79,4-5.15,4a8.12,8.12,0,0,1-3.84-.91Z"/><path class="cls-1" d="M223.17,6.84v3.25h3.05v2.39h-3.05v5.59c0,1.54.42,2.34,1.64,2.34a4.08,4.08,0,0,0,1.25-.15l.05,2.44a6.94,6.94,0,0,1-2.31.34A3.73,3.73,0,0,1,221,22a5.05,5.05,0,0,1-1-3.53v-6h-1.82V10.09h1.82V7.75Z"/><path class="cls-1" d="M240.52,16.31c0,4.65-3.28,6.73-6.5,6.73a6.13,6.13,0,0,1-6.35-6.53c0-4.16,2.73-6.7,6.55-6.7S240.52,12.46,240.52,16.31Zm-9.55.13c0,2.44,1.2,4.29,3.15,4.29s3.09-1.8,3.09-4.35c0-2-.88-4.23-3.06-4.23S231,14.33,231,16.44Z"/><path class="cls-1" d="M243.14,14.17c0-1.71,0-2.93-.1-4.08h2.78l.1,2.42H246a3.77,3.77,0,0,1,3.46-2.7,3.48,3.48,0,0,1,.75.07v3a4.66,4.66,0,0,0-.94-.1,2.82,2.82,0,0,0-2.86,2.41,5.81,5.81,0,0,0-.1,1v6.55h-3.2Z"/><path class="cls-1" d="M255.8,6.56A1.69,1.69,0,0,1,254,8.27a1.67,1.67,0,0,1-1.76-1.71,1.79,1.79,0,0,1,3.58,0Zm-3.4,16.19V10.09h3.22V22.75Z"/><path class="cls-1" d="M268.88,19.71a20.25,20.25,0,0,0,.18,3h-2.88l-.21-1.4h-.08A4.69,4.69,0,0,1,262.15,23a3.76,3.76,0,0,1-4-3.77c0-3.2,2.83-4.81,7.51-4.78v-.21c0-.83-.33-2.21-2.57-2.21a6.78,6.78,0,0,0-3.41.93l-.62-2.08a9.15,9.15,0,0,1,4.58-1.11c4,0,5.22,2.57,5.22,5.33Zm-3.12-3.14c-2.26-.06-4.42.44-4.42,2.36a1.68,1.68,0,0,0,1.82,1.82,2.59,2.59,0,0,0,2.5-1.74,2.19,2.19,0,0,0,.1-.7Z"/><path class="cls-1" d="M272.26,4.29h3.22V22.75h-3.22Z"/><path class="cls-1" d="M296,4.29v14.9c0,1.3.05,2.71.1,3.56h-2.86l-.13-2h-.05A4.54,4.54,0,0,1,288.93,23c-3,0-5.41-2.57-5.41-6.47,0-4.24,2.63-6.76,5.67-6.76a4,4,0,0,1,3.56,1.66h.05V4.29Zm-3.2,11.08a3.89,3.89,0,0,0-.08-.83A2.79,2.79,0,0,0,290,12.28c-2.06,0-3.2,1.82-3.2,4.18s1.14,4,3.17,4a2.83,2.83,0,0,0,2.76-2.27,3.4,3.4,0,0,0,.1-.93Z"/><path class="cls-1" d="M301.69,17.32c.08,2.29,1.87,3.28,3.9,3.28A9.38,9.38,0,0,0,309.1,20l.47,2.21a11.7,11.7,0,0,1-4.42.81c-4.11,0-6.52-2.55-6.52-6.42,0-3.51,2.13-6.81,6.18-6.81s5.46,3.38,5.46,6.16a8.17,8.17,0,0,1-.1,1.35Zm5.57-2.24c0-1.17-.5-3.09-2.63-3.09a3.12,3.12,0,0,0-2.94,3.09Z"/><path class="cls-1" d="M318.23,14.3c0-1.66-.05-3-.11-4.21h2.81l.16,1.95h.05a4.93,4.93,0,0,1,4.34-2.23c2.92,0,5.33,2.49,5.33,6.44,0,4.58-2.88,6.79-5.77,6.79a4.16,4.16,0,0,1-3.56-1.69h-.05V27.9h-3.2Zm3.2,3.15a3.17,3.17,0,0,0,.1.88,2.9,2.9,0,0,0,2.81,2.24c2,0,3.22-1.69,3.22-4.19,0-2.23-1.09-4-3.14-4a3,3,0,0,0-2.86,2.36,2.85,2.85,0,0,0-.13.81Z"/><path class="cls-1" d="M333.44,14.17c0-1.71,0-2.93-.11-4.08h2.79l.1,2.42h.1a3.79,3.79,0,0,1,3.46-2.7,3.57,3.57,0,0,1,.76.07v3a4.66,4.66,0,0,0-.94-.1,2.82,2.82,0,0,0-2.86,2.41,5.81,5.81,0,0,0-.1,1v6.55h-3.2Z"/><path class="cls-1" d="M354.5,16.31C354.5,21,351.22,23,348,23a6.13,6.13,0,0,1-6.35-6.53c0-4.16,2.74-6.7,6.56-6.7S354.5,12.46,354.5,16.31Zm-9.54.13c0,2.44,1.19,4.29,3.14,4.29s3.1-1.8,3.1-4.35c0-2-.89-4.23-3.07-4.23S345,14.33,345,16.44Z"/><path class="cls-1" d="M357.12,14.3c0-1.66-.05-3-.1-4.21h2.81L360,12H360a4.91,4.91,0,0,1,4.34-2.23c2.91,0,5.33,2.49,5.33,6.44,0,4.58-2.89,6.79-5.77,6.79a4.18,4.18,0,0,1-3.57-1.69h-.05V27.9h-3.2Zm3.2,3.15a3.17,3.17,0,0,0,.11.88,2.89,2.89,0,0,0,2.8,2.24c2,0,3.23-1.69,3.23-4.19,0-2.23-1.09-4-3.15-4a3,3,0,0,0-2.86,2.36,2.85,2.85,0,0,0-.13.81Z"/><path class="cls-1" d="M375.74,6.56a1.8,1.8,0,0,1-3.59,0,1.8,1.8,0,0,1,3.59,0Zm-3.41,16.19V10.09h3.23V22.75Z"/><path class="cls-1" d="M381.25,17.32c.08,2.29,1.88,3.28,3.9,3.28a9.34,9.34,0,0,0,3.51-.58l.47,2.21a11.7,11.7,0,0,1-4.42.81c-4.11,0-6.53-2.55-6.53-6.42,0-3.51,2.14-6.81,6.19-6.81s5.46,3.38,5.46,6.16a8.17,8.17,0,0,1-.1,1.35Zm5.57-2.24c0-1.17-.5-3.09-2.63-3.09a3.13,3.13,0,0,0-2.94,3.09Z"/><path class="cls-1" d="M396.07,6.84v3.25h3.05v2.39h-3.05v5.59c0,1.54.42,2.34,1.64,2.34a4.13,4.13,0,0,0,1.25-.15L399,22.7a6.94,6.94,0,0,1-2.31.34A3.73,3.73,0,0,1,393.94,22a5,5,0,0,1-1-3.53v-6h-1.82V10.09H393V7.75Z"/><path class="cls-1" d="M411.36,19.71a20.25,20.25,0,0,0,.18,3h-2.88l-.21-1.4h-.08A4.7,4.7,0,0,1,404.63,23a3.76,3.76,0,0,1-4-3.77c0-3.2,2.83-4.81,7.51-4.78v-.21c0-.83-.34-2.21-2.57-2.21a6.78,6.78,0,0,0-3.41.93l-.62-2.08a9.12,9.12,0,0,1,4.58-1.11c4.05,0,5.22,2.57,5.22,5.33Zm-3.12-3.14c-2.26-.06-4.42.44-4.42,2.36a1.68,1.68,0,0,0,1.82,1.82,2.6,2.6,0,0,0,2.5-1.74,2.19,2.19,0,0,0,.1-.7Z"/><path class="cls-1" d="M414.74,14.17c0-1.71,0-2.93-.1-4.08h2.78l.1,2.42h.11a3.77,3.77,0,0,1,3.45-2.7,3.51,3.51,0,0,1,.76.07v3a4.66,4.66,0,0,0-.94-.1A2.82,2.82,0,0,0,418,15.21a5.81,5.81,0,0,0-.1,1v6.55h-3.2Z"/><path class="cls-1" d="M427.4,6.56a1.8,1.8,0,0,1-3.59,0,1.8,1.8,0,0,1,3.59,0ZM424,22.75V10.09h3.22V22.75Z"/><path class="cls-1" d="M442.69,16.31c0,4.65-3.28,6.73-6.5,6.73a6.12,6.12,0,0,1-6.34-6.53c0-4.16,2.73-6.7,6.55-6.7S442.69,12.46,442.69,16.31Zm-9.54.13c0,2.44,1.19,4.29,3.15,4.29s3.09-1.8,3.09-4.35c0-2-.89-4.23-3.07-4.23S433.15,14.33,433.15,16.44Z"/><path class="cls-1" d="M445.16,19.82a7.18,7.18,0,0,0,3.25.91c1.4,0,2-.58,2-1.41s-.52-1.3-2.08-1.84c-2.47-.86-3.51-2.21-3.48-3.7,0-2.23,1.84-4,4.78-4a7.41,7.41,0,0,1,3.35.75l-.62,2.26a5.72,5.72,0,0,0-2.68-.73c-1.14,0-1.77.55-1.77,1.33s.6,1.2,2.21,1.77c2.29.83,3.36,2,3.38,3.87,0,2.29-1.79,4-5.14,4a8.13,8.13,0,0,1-3.85-.91Z"/></g></svg>