<?xml version="1.0" encoding="utf-8"?>
<!-- Generator: Adobe Illustrator 25.4.1, SVG Export Plug-In . SVG Version: 6.00 Build 0)  -->
<svg version="1.1" id="Capa_1" xmlns="http://www.w3.org/2000/svg" xmlns:xlink="http://www.w3.org/1999/xlink" x="0px" y="0px"
	 width="259px" height="32px" viewBox="0 0 259 32" style="enable-background:new 0 0 259 32;" xml:space="preserve">
<style type="text/css">
	.st0{fill:#FFFFFF;}
	.st1{fill:#FEC707;}
	.st2{fill:#223A7A;}
	.st3{fill:#D80E28;}
	.st4{fill:#585857;}
	.st5{fill:none;}
	.st6{fill:#D7723F;}
</style>
<g>
	<g>
		<g>
			<path class="st0" d="M115.49,18.18h-1.43v-0.66h3.65v0.66h-1.43v3.71h-0.8V18.18z"/>
			<path class="st0" d="M119.71,19.43l-0.45,0.04c-0.51,0.05-0.77,0.31-0.77,0.78v1.64h-0.77v-3.03h0.74v0.53
				c0.16-0.36,0.48-0.56,0.97-0.6l0.24-0.02L119.71,19.43z"/>
			<path class="st0" d="M122.32,19.09c0.21,0.21,0.31,0.52,0.31,0.95v1.84h-0.74v-0.46c-0.07,0.16-0.18,0.29-0.33,0.38
				c-0.15,0.09-0.33,0.14-0.52,0.14c-0.2,0-0.39-0.04-0.55-0.12c-0.17-0.08-0.3-0.2-0.39-0.34c-0.09-0.14-0.14-0.31-0.14-0.48
				c0-0.22,0.06-0.4,0.17-0.53c0.11-0.13,0.3-0.22,0.55-0.28c0.26-0.06,0.61-0.09,1.06-0.09h0.16v-0.14c0-0.21-0.04-0.36-0.13-0.45
				c-0.09-0.09-0.24-0.14-0.44-0.14c-0.16,0-0.33,0.03-0.51,0.08c-0.18,0.06-0.35,0.13-0.52,0.23l-0.22-0.53
				c0.17-0.11,0.37-0.2,0.61-0.27c0.24-0.07,0.47-0.11,0.68-0.11C121.8,18.78,122.11,18.89,122.32,19.09z M121.7,21.17
				c0.13-0.14,0.2-0.32,0.2-0.54v-0.13h-0.11c-0.28,0-0.49,0.01-0.64,0.04c-0.15,0.02-0.26,0.07-0.33,0.13
				c-0.07,0.06-0.1,0.15-0.1,0.25c0,0.13,0.05,0.24,0.14,0.33c0.09,0.08,0.21,0.13,0.35,0.13C121.4,21.38,121.57,21.31,121.7,21.17z
				"/>
			<path class="st0" d="M125.99,19.09c0.18,0.21,0.27,0.52,0.27,0.94v1.86h-0.77v-1.82c0-0.24-0.04-0.41-0.13-0.51
				c-0.09-0.11-0.23-0.16-0.42-0.16c-0.22,0-0.4,0.07-0.54,0.21c-0.13,0.14-0.2,0.33-0.2,0.56v1.72h-0.77v-3.03h0.76v0.45
				c0.1-0.17,0.24-0.3,0.42-0.39c0.17-0.09,0.37-0.14,0.59-0.14C125.54,18.78,125.81,18.89,125.99,19.09z"/>
			<path class="st0" d="M127.42,21.84c-0.23-0.07-0.42-0.16-0.57-0.29l0.22-0.54c0.32,0.24,0.69,0.35,1.11,0.35
				c0.18,0,0.31-0.03,0.41-0.09c0.09-0.06,0.14-0.14,0.14-0.25c0-0.09-0.03-0.16-0.1-0.21c-0.06-0.05-0.18-0.09-0.34-0.14l-0.5-0.11
				c-0.28-0.06-0.49-0.16-0.63-0.3c-0.14-0.14-0.2-0.32-0.2-0.55c0-0.19,0.05-0.35,0.16-0.49c0.11-0.14,0.25-0.25,0.44-0.33
				c0.19-0.08,0.41-0.12,0.65-0.12c0.21,0,0.42,0.03,0.62,0.1c0.2,0.07,0.38,0.16,0.53,0.28l-0.22,0.53
				c-0.31-0.23-0.63-0.34-0.94-0.34c-0.17,0-0.3,0.03-0.4,0.09c-0.09,0.06-0.14,0.15-0.14,0.26c0,0.08,0.03,0.15,0.09,0.2
				c0.06,0.05,0.16,0.1,0.29,0.12l0.51,0.12c0.3,0.07,0.52,0.17,0.66,0.31c0.14,0.14,0.21,0.33,0.21,0.56c0,0.28-0.11,0.5-0.34,0.67
				c-0.23,0.17-0.54,0.25-0.92,0.25C127.89,21.94,127.64,21.9,127.42,21.84z"/>
			<path class="st0" d="M132.49,18.98c0.2,0.13,0.36,0.32,0.48,0.56c0.11,0.24,0.17,0.52,0.17,0.83c0,0.31-0.06,0.59-0.17,0.82
				c-0.11,0.24-0.27,0.42-0.47,0.55c-0.2,0.13-0.44,0.19-0.7,0.19c-0.21,0-0.41-0.05-0.58-0.14c-0.17-0.09-0.3-0.22-0.39-0.38V23
				h-0.77v-4.15h0.76v0.46c0.09-0.17,0.22-0.3,0.39-0.39c0.17-0.09,0.37-0.14,0.59-0.14C132.05,18.78,132.28,18.85,132.49,18.98z
				 M132.16,21.08c0.14-0.17,0.2-0.4,0.2-0.71c0-0.31-0.07-0.56-0.2-0.73s-0.33-0.26-0.57-0.26c-0.25,0-0.44,0.08-0.57,0.25
				c-0.13,0.17-0.2,0.41-0.2,0.72c0,0.31,0.07,0.55,0.2,0.72c0.13,0.17,0.33,0.25,0.57,0.25C131.83,21.34,132.02,21.25,132.16,21.08
				z"/>
			<path class="st0" d="M134.34,21.74c-0.23-0.13-0.41-0.31-0.54-0.55c-0.13-0.24-0.19-0.52-0.19-0.84c0-0.32,0.06-0.6,0.19-0.83
				c0.13-0.24,0.31-0.42,0.54-0.55c0.23-0.13,0.5-0.19,0.81-0.19c0.31,0,0.58,0.06,0.81,0.19c0.23,0.13,0.41,0.31,0.54,0.55
				c0.13,0.24,0.19,0.52,0.19,0.83c0,0.32-0.06,0.6-0.19,0.84c-0.13,0.24-0.31,0.42-0.54,0.55s-0.5,0.19-0.81,0.19
				C134.84,21.94,134.57,21.87,134.34,21.74z M135.72,21.09c0.13-0.17,0.2-0.41,0.2-0.73c0-0.32-0.07-0.56-0.2-0.73
				s-0.32-0.25-0.57-0.25c-0.25,0-0.44,0.08-0.57,0.25c-0.13,0.17-0.2,0.41-0.2,0.73c0,0.32,0.07,0.57,0.2,0.73
				c0.13,0.17,0.32,0.25,0.57,0.25C135.4,21.34,135.59,21.25,135.72,21.09z"/>
			<path class="st0" d="M139.33,19.43l-0.45,0.04c-0.51,0.05-0.77,0.31-0.77,0.78v1.64h-0.77v-3.03h0.74v0.53
				c0.16-0.36,0.48-0.56,0.97-0.6l0.24-0.02L139.33,19.43z"/>
			<path class="st0" d="M141.82,21.34l-0.04,0.58c-0.12,0.01-0.24,0.02-0.34,0.02c-0.43,0-0.74-0.1-0.94-0.29
				c-0.2-0.2-0.3-0.49-0.3-0.88v-1.32h-0.58v-0.58h0.58v-0.9h0.77v0.9h0.8v0.58h-0.8v1.31c0,0.41,0.19,0.61,0.56,0.61
				C141.63,21.35,141.72,21.35,141.82,21.34z"/>
			<path class="st0" d="M144.93,20.51h-2.06c0.02,0.28,0.11,0.49,0.25,0.63c0.14,0.14,0.35,0.2,0.62,0.2c0.33,0,0.64-0.11,0.92-0.32
				l0.22,0.53c-0.14,0.12-0.32,0.21-0.53,0.28c-0.21,0.07-0.43,0.11-0.64,0.11c-0.5,0-0.89-0.14-1.17-0.42s-0.43-0.66-0.43-1.15
				c0-0.31,0.06-0.58,0.19-0.82c0.12-0.24,0.3-0.43,0.52-0.56c0.23-0.13,0.48-0.2,0.77-0.2c0.42,0,0.75,0.13,0.99,0.4
				c0.24,0.27,0.36,0.64,0.36,1.11V20.51z M143.1,19.53c-0.13,0.13-0.2,0.32-0.23,0.57h1.4c-0.01-0.25-0.07-0.44-0.19-0.57
				c-0.12-0.13-0.28-0.19-0.48-0.19C143.39,19.33,143.23,19.39,143.1,19.53z"/>
		</g>
	</g>
	<g>
		<g>
			<path class="st0" d="M129.93,11.09c0.02,0.02,0.06,0.04,0.11,0.02c0.01,0.02,0.02,0.03,0.04,0.04c0.01,0,0.02,0,0.03,0
				c0.02,0,0.05-0.01,0.07-0.03c0.03,0.04,0.09,0.05,0.16,0.05c0.04,0,0.08,0,0.12-0.01c0.02,0,0.04,0,0.05,0
				c0.09,0,0.15-0.02,0.2-0.08c0.04,0.02,0.16,0.04,0.29-0.13c0.04-0.01,0.22-0.08,0.19-0.28c0.03-0.02,0.11-0.12,0.06-0.23
				c0.01-0.03,0.03-0.11-0.02-0.16c-0.01-0.02-0.05-0.1-0.12-0.12c-0.04-0.01-0.09,0.01-0.13,0.06c-0.01,0.01-0.03,0.03-0.03,0.05
				c-0.04,0.02-0.06,0.07-0.06,0.08c-0.03,0.02-0.05,0.05-0.06,0.07c-0.06-0.01-0.13,0-0.2,0.04c-0.05-0.04-0.11-0.06-0.17-0.06
				c0,0,0,0,0,0c-0.08,0-0.16,0.03-0.22,0.1c-0.08,0.09-0.12,0.22-0.11,0.34c-0.02,0-0.03,0-0.05,0.01
				c-0.03,0.02-0.04,0.05-0.04,0.08l0,0l0,0c-0.03,0-0.06,0.01-0.09,0.03C129.9,11.02,129.91,11.07,129.93,11.09z M130.83,10.46
				c0.08,0.03,0.12,0.13,0.12,0.13l0.03-0.01c0,0-0.04-0.11-0.14-0.15c0,0,0,0,0,0c0.01-0.02,0.03-0.05,0.06-0.05
				c0.03-0.01,0.09,0.01,0.18,0.13l0.03-0.02c-0.08-0.1-0.14-0.14-0.2-0.14c0.01-0.02,0.02-0.04,0.05-0.05
				c0.04-0.02,0.1,0,0.16,0.04l0.02-0.03c-0.06-0.04-0.11-0.06-0.16-0.05c0,0,0.01-0.01,0.01-0.01c0.04-0.04,0.07-0.05,0.1-0.05
				c0.06,0.01,0.1,0.1,0.1,0.1l0,0l0,0c0.03,0.03,0.02,0.1,0.01,0.13l0,0.01l0,0.01c0.05,0.12-0.05,0.2-0.06,0.21l-0.01,0.01l0,0.01
				c0.04,0.19-0.16,0.25-0.17,0.25l-0.01,0l0,0c-0.1,0.14-0.2,0.14-0.25,0.13c0.08-0.13,0.08-0.31,0.01-0.46
				c-0.02-0.04-0.05-0.08-0.08-0.11C130.72,10.45,130.78,10.44,130.83,10.46z M129.96,11c0.02-0.02,0.05-0.02,0.06-0.02
				c0.01,0,0.02,0,0.03-0.01c0,0,0.01-0.01,0.01-0.02c0-0.02,0.01-0.05,0.03-0.06c0.02-0.01,0.04-0.01,0.06,0l0.03,0.02l0-0.04
				c0-0.01,0-0.02,0.01-0.03c0.01-0.01,0.04-0.02,0.06-0.01c0.01,0,0.06,0.01,0.07,0.04l0.01,0.04l0.02-0.04
				c0.02-0.04,0.06-0.05,0.09-0.05c0.03,0,0.05,0.03,0.06,0.06l0.03-0.01c-0.01-0.05-0.04-0.08-0.08-0.09c-0.01,0-0.02,0-0.02,0
				c0.01-0.05,0.04-0.17,0.14-0.2c0.02,0.02,0.03,0.05,0.05,0.08c0.05,0.12,0.03,0.27-0.04,0.36l0.03,0.02
				c0.08-0.1,0.1-0.26,0.05-0.39c-0.04-0.09-0.1-0.14-0.18-0.15c-0.07-0.01-0.13,0.02-0.18,0.08c-0.05,0.05-0.08,0.13-0.09,0.21
				c0,0,0,0.01,0,0.02c0,0-0.01,0.01-0.01,0.01c0,0-0.01,0.01-0.01,0.01c-0.01-0.11,0.03-0.23,0.1-0.31
				c0.06-0.06,0.12-0.09,0.19-0.09c0,0,0,0,0,0c0.1,0,0.19,0.06,0.24,0.17c0.07,0.14,0.07,0.32-0.01,0.44
				c-0.03,0.06-0.13,0.09-0.18,0.09c-0.01,0-0.03,0-0.05,0c-0.08,0.01-0.22,0.02-0.25-0.03l-0.01-0.01l-0.01-0.02
				c-0.02,0.03-0.06,0.06-0.09,0.05c-0.01,0-0.03-0.02-0.02-0.03l0-0.04l-0.03,0.02c-0.03,0.02-0.07,0.02-0.08,0
				C129.94,11.05,129.95,11.03,129.96,11z M130.21,10.81c0.01-0.07,0.04-0.14,0.08-0.19c0.04-0.05,0.1-0.08,0.15-0.07
				c0.03,0,0.06,0.01,0.08,0.03c-0.11,0.05-0.14,0.19-0.15,0.23c-0.02,0.01-0.04,0.02-0.05,0.04c-0.02-0.02-0.05-0.03-0.08-0.04
				C130.24,10.8,130.22,10.8,130.21,10.81z"/>
			<path class="st0" d="M127.98,10.68c-0.03,0.2,0.15,0.27,0.19,0.28c0.08,0.11,0.17,0.14,0.23,0.14c0.04,0,0.07-0.01,0.08-0.02
				c0.03,0.01,0.06,0.01,0.09,0.01c0.04,0,0.07-0.01,0.11-0.02c0.01,0.01,0.03,0.02,0.06,0.02c0.03,0,0.07,0,0.1-0.02
				c0.01,0.01,0.03,0.02,0.06,0.02c0.05,0,0.11,0,0.15-0.03c0.01,0.01,0.02,0.01,0.04,0.01c0.08,0,0.16,0.01,0.24,0
				c0.02,0,0.03-0.01,0.04-0.02c0-0.02,0-0.03-0.02-0.04c0,0-0.01,0-0.01-0.01c-0.01,0-0.01-0.01-0.01-0.01c0,0,0,0,0,0
				c0,0,0-0.01-0.01-0.01l-0.01,0c-0.02-0.01-0.06-0.01-0.09-0.02c-0.01,0-0.03,0-0.04,0c-0.01-0.03-0.04-0.05-0.08-0.05
				c0,0-0.01,0-0.01,0c0,0,0,0,0-0.01c0,0,0,0,0-0.01c-0.01-0.02-0.03-0.02-0.05-0.03c0.01-0.12-0.03-0.24-0.11-0.33
				c-0.06-0.07-0.14-0.1-0.21-0.1c0,0,0,0-0.01,0c-0.06,0-0.12,0.02-0.17,0.06c-0.07-0.04-0.14-0.05-0.2-0.04
				c-0.01-0.02-0.03-0.05-0.06-0.07c0-0.02-0.02-0.06-0.06-0.08c-0.01-0.02-0.03-0.04-0.03-0.05c-0.05-0.05-0.09-0.06-0.13-0.06
				c-0.07,0.01-0.11,0.1-0.12,0.12c-0.04,0.04-0.02,0.13-0.02,0.16C127.87,10.56,127.95,10.65,127.98,10.68z M129.05,10.89
				L129.05,10.89c0.01,0.01,0.01,0.01,0.02,0.02c0.01,0.01,0.02,0.01,0.03,0.01c0.02,0,0.05,0.02,0.05,0.04l0,0.01l0.01,0
				c0.02,0,0.04,0.01,0.05,0.01c0.03,0,0.06,0.01,0.07,0.01c0,0,0,0,0,0c0,0,0,0,0,0.01c0.01,0.01,0.02,0.02,0.02,0.02
				c0,0,0.01,0,0.01,0c0.01,0,0.01,0.01,0.01,0.01h0c0,0,0,0-0.01,0c-0.08,0.01-0.16,0.01-0.24,0c-0.02,0-0.02,0-0.02-0.01
				L129.06,11l-0.02,0.02c-0.03,0.03-0.09,0.03-0.14,0.03c-0.02,0-0.03,0-0.04-0.01l0-0.02l-0.02,0.01
				c-0.03,0.02-0.06,0.02-0.1,0.02c-0.02,0-0.03,0-0.03-0.01l-0.01-0.02l-0.02,0.01c-0.02,0.01-0.04,0.01-0.06,0.02
				c-0.08-0.08-0.11-0.23-0.07-0.35c0.01-0.03,0.03-0.06,0.05-0.1c0.1,0.03,0.14,0.17,0.14,0.22l-0.02,0l0,0.03l0.15-0.01
				c0.01,0,0.03,0,0.03,0c0.02,0.01,0.03,0.02,0.05,0.02c0.01,0,0.02,0,0.03,0C129.01,10.87,129.04,10.87,129.05,10.89z
				 M128.63,10.57c0.02-0.02,0.05-0.03,0.08-0.03c0.05-0.01,0.09,0.01,0.14,0.05c0.06,0.06,0.1,0.15,0.1,0.24
				c0,0-0.01-0.01-0.01-0.01c-0.02-0.01-0.04-0.01-0.06-0.01l-0.1,0C128.77,10.77,128.74,10.62,128.63,10.57z M128.7,10.44
				C128.7,10.44,128.71,10.44,128.7,10.44c0.07,0,0.14,0.03,0.19,0.09c0.07,0.08,0.11,0.19,0.1,0.3c-0.01,0-0.01,0-0.01,0
				c0,0,0,0-0.01,0c0-0.1-0.04-0.2-0.11-0.26c-0.05-0.05-0.11-0.07-0.16-0.06c-0.09,0.01-0.16,0.07-0.19,0.18
				c-0.04,0.11-0.03,0.27,0.06,0.37c-0.04,0-0.07,0-0.1-0.01c-0.08-0.12-0.08-0.29-0.01-0.43C128.52,10.5,128.6,10.44,128.7,10.44z
				 M127.95,10.44c-0.01-0.03-0.02-0.1,0.01-0.13l0,0l0,0c0,0,0.04-0.09,0.1-0.1c0.03-0.01,0.07,0.01,0.1,0.05
				c0,0,0.01,0.01,0.01,0.01c-0.05,0-0.1,0.01-0.16,0.05l0.02,0.03c0.07-0.05,0.12-0.06,0.16-0.04c0.03,0.01,0.04,0.03,0.05,0.05
				c-0.06,0-0.12,0.04-0.2,0.14l0.03,0.02c0.09-0.12,0.15-0.13,0.18-0.13c0.03,0.01,0.05,0.04,0.06,0.05c0,0,0,0,0,0
				c-0.1,0.04-0.14,0.14-0.14,0.15l0.03,0.01c0,0,0.03-0.09,0.12-0.13c0.05-0.02,0.12-0.01,0.19,0.02
				c-0.03,0.03-0.06,0.06-0.08,0.11c-0.08,0.15-0.07,0.33,0.01,0.46c-0.05,0.01-0.15,0.01-0.25-0.13l0,0l-0.01,0
				c-0.01,0-0.21-0.05-0.17-0.25l0-0.01l-0.01-0.01c0,0-0.11-0.09-0.06-0.21L127.95,10.44L127.95,10.44z"/>
			<path class="st0" d="M129.56,10.95c0,0.06-0.01,0.11-0.02,0.18l0,0.01l0,0.01c0,0,0.04,0.05,0.1,0.07l0.02,0.01l0-0.02
				c0-0.01,0.02-0.16,0-0.32c0.2-0.06,0.27-0.27,0.28-0.35c0.01-0.05,0.01-0.05,0-0.06l-0.01-0.01l-0.01,0
				c-0.17,0.07-0.25,0.19-0.29,0.29c-0.01-0.05-0.03-0.1-0.05-0.13c0.17-0.02,0.3-0.16,0.3-0.33c0-0.1-0.04-0.18-0.11-0.24l0.08-0.1
				l-0.15,0.02l-0.05-0.08l-0.08,0.05l-0.06-0.05l-0.03,0.06l-0.14-0.05l0.04,0.11c-0.11,0.06-0.16,0.18-0.16,0.28
				c0,0.14,0.08,0.28,0.26,0.32c0.01,0.01,0.05,0.07,0.06,0.18c-0.06-0.09-0.16-0.19-0.34-0.22l-0.01,0l0,0.01
				c0,0.01,0.03,0.11,0.08,0.17C129.33,10.83,129.42,10.93,129.56,10.95z M129.66,10.82c0.02-0.09,0.09-0.24,0.26-0.32
				c-0.01,0.07-0.07,0.28-0.27,0.34L129.66,10.82z M129.78,9.99l-0.03,0.04c-0.01-0.01-0.03-0.02-0.04-0.03L129.78,9.99z
				 M129.85,10.29c0,0.13-0.09,0.25-0.21,0.28c0.19-0.26,0.06-0.48-0.01-0.57C129.76,10.04,129.85,10.15,129.85,10.29z M129.65,9.93
				l0.03,0.05c-0.03-0.01-0.05-0.02-0.08-0.02L129.65,9.93z M129.53,9.93l0.03,0.02c0,0,0,0,0,0c-0.01,0-0.03,0-0.04,0L129.53,9.93z
				 M129.46,9.97c-0.02,0-0.03,0.01-0.05,0.02l-0.01-0.04L129.46,9.97z M129.26,10.29c0-0.12,0.07-0.25,0.23-0.29
				c-0.07,0.08-0.21,0.31-0.02,0.57C129.33,10.53,129.26,10.41,129.26,10.29z M129.54,9.99c0,0,0.01,0,0.01,0c0.01,0,0.02,0,0.02,0
				c0.03,0.03,0.27,0.28,0.01,0.59c-0.01,0-0.02,0-0.04,0c-0.01,0-0.02,0-0.03,0C129.27,10.27,129.51,10.03,129.54,9.99z
				 M129.53,10.62c0.01,0,0.01,0,0.02,0c0.03,0.05,0.06,0.12,0.07,0.2l0.01,0.03l0,0.01c0.02,0.13,0.01,0.25,0,0.3
				c-0.03-0.01-0.05-0.03-0.06-0.04c0.01-0.07,0.02-0.13,0.02-0.19l0-0.02l0-0.05l0,0C129.59,10.73,129.55,10.65,129.53,10.62z
				 M129.56,10.87l0.02,0.04l0,0c-0.21-0.01-0.31-0.24-0.34-0.31C129.43,10.65,129.52,10.79,129.56,10.87z"/>
			<path class="st0" d="M128.44,7.82c-0.01-0.02-0.01-0.04-0.01-0.06c0-0.01,0.01-0.01,0.01-0.02c0,0,0,0,0,0
				c-0.02,0.01-0.05,0-0.06-0.02c-0.01-0.02,0-0.06,0.03-0.07c-0.02,0-0.04,0.01-0.06,0.02c-0.02,0.01-0.04,0.01-0.06,0
				c-0.02-0.01-0.02-0.04-0.01-0.06c0.01-0.02,0.02-0.03,0.04-0.05c-0.03,0.01-0.06,0.04-0.09,0.03c-0.03-0.01-0.04-0.06-0.02-0.09
				c0.02-0.03,0.05-0.05,0.07-0.08c-0.05,0.02-0.1,0.04-0.15,0.05c-0.02,0-0.04,0.01-0.06,0c-0.01-0.01-0.01-0.03,0-0.04l-0.07,0.02
				c-0.02,0.01-0.04,0.01-0.05,0.01c-0.02-0.01-0.03-0.03-0.02-0.04c-0.03,0.02-0.06,0.03-0.09,0.03c-0.02,0-0.03-0.01-0.04-0.03
				c-0.01-0.02,0-0.03,0.01-0.04c-0.03,0.01-0.06,0.05-0.05,0.08c0.01,0.02,0.04,0.04,0.06,0.03c0.03,0,0.05-0.02,0.07-0.03
				c-0.01,0.01,0.02,0.04,0.02,0.04c0.02,0.01,0.04,0.02,0.07,0.01c0.01,0,0.02-0.01,0.04-0.01c0,0,0.03-0.02,0.03-0.02
				c0,0.02,0.02,0.02,0.04,0.02c0.03,0,0.07,0,0.1,0c-0.02,0.02-0.03,0.06-0.01,0.09c0.02,0.03,0.05,0.04,0.08,0.03
				c-0.03,0.03-0.01,0.08,0.03,0.09c0.03,0.01,0.07-0.01,0.09-0.03c0,0-0.01,0.01-0.01,0.01c0,0,0,0.01-0.01,0.01
				c0,0.01-0.01,0.02,0,0.03c0,0.01,0.01,0.02,0.01,0.03c0,0.01,0.01,0.01,0.02,0.02c0,0,0.01,0,0.01,0c0.01,0,0.02,0,0.03-0.01
				c-0.01,0.01-0.01,0.02-0.02,0.03c0,0.01-0.01,0.02-0.01,0.03c0,0.03,0.02,0.05,0.04,0.05c0.01,0,0.03,0,0.04-0.01
				c0.03-0.02,0.04-0.05,0.06-0.08C128.51,7.85,128.46,7.85,128.44,7.82z"/>
			<path class="st0" d="M127.2,7.48c0.02-0.01,0.04-0.02,0.06-0.03c0,0,0.01-0.01,0.02,0c0,0,0,0.01,0,0.01
				c0,0.02,0.03,0.04,0.05,0.05c0.03,0,0.05-0.01,0.07-0.02c0,0,0,0.01,0,0.01c0.01,0.02,0.03,0.02,0.05,0.02
				c0.02,0,0.04-0.01,0.06-0.01c0.02-0.01,0.05-0.02,0.06-0.04c-0.01,0.01-0.03,0.02-0.04,0.02c-0.02,0-0.03-0.02-0.03-0.04
				c0-0.02,0.02-0.03,0.03-0.05c-0.03,0.02-0.07,0.03-0.1,0.05c-0.02,0-0.03,0.01-0.05,0c-0.02,0-0.03-0.02-0.03-0.03
				c0-0.01,0.01-0.02,0.01-0.02c0.01-0.01,0.02-0.02,0.03-0.02c-0.03,0.01-0.06,0.02-0.09,0.04c-0.02,0.01-0.05,0.02-0.07,0.02
				c-0.02,0-0.05-0.02-0.05-0.04c0-0.01,0-0.02,0.01-0.03c0,0-0.01,0-0.01,0.01c-0.02,0.01-0.03,0.03-0.04,0.04
				c-0.01,0.02-0.01,0.04,0,0.05C127.15,7.49,127.17,7.49,127.2,7.48z"/>
			<path class="st0" d="M128.7,6.96C128.7,6.96,128.69,6.96,128.7,6.96c-0.01,0-0.01,0.01-0.02,0.01c-0.01,0-0.02,0.01-0.03,0.01
				c-0.02,0-0.04-0.01-0.04-0.03c0-0.01,0-0.03-0.01-0.03c-0.01-0.01-0.02-0.01-0.03-0.01c-0.03,0.01-0.08,0.05-0.1,0.01
				c0-0.01,0-0.01,0-0.02c0,0,0-0.01,0-0.01c-0.02,0.02-0.05,0.03-0.07,0.04c-0.03,0.01-0.05,0.03-0.08,0.04
				c-0.02,0.01-0.04,0.01-0.05,0c-0.02-0.02,0-0.05,0.01-0.07c0.01-0.02,0.01-0.02,0.03-0.03c-0.07,0.03-0.13,0.04-0.21,0.07
				c-0.08,0.03-0.15,0.06-0.21,0.12c-0.01,0.01-0.02,0.02-0.02,0.03c0,0.01,0,0.03,0.02,0.03c-0.09,0.03-0.16,0.09-0.21,0.16
				c-0.01,0.02-0.02,0.04,0,0.05c0.01,0.01,0.02,0.01,0.03,0.01c0.03,0,0.05-0.01,0.07-0.02c-0.01-0.01-0.02-0.03-0.01-0.05
				c0.01-0.02,0.02-0.03,0.03-0.04c0.05-0.05,0.11-0.08,0.17-0.11c-0.01,0-0.02-0.01-0.02-0.02c0-0.01,0.01-0.02,0.01-0.03
				c0.01-0.01,0.01-0.01,0.02-0.02c0.03-0.03,0.06-0.05,0.1-0.07c0.04-0.02,0.08-0.03,0.12-0.05c0.01,0,0.01,0,0.02-0.01
				c0,0,0.02,0,0.02-0.01c-0.01,0.04-0.01,0.1,0.04,0.1c0.06,0,0.11-0.03,0.15-0.07c-0.01,0.02-0.02,0.04-0.01,0.06
				c0.01,0.02,0.04,0.01,0.05,0.01c0.04-0.01,0.09-0.03,0.12-0.06c-0.01,0.02-0.03,0.05-0.01,0.06c0,0,0,0,0.01,0
				c0.01,0,0.02,0,0.03,0c0.02,0,0.03-0.01,0.04-0.01c0.02-0.01,0.04-0.02,0.05-0.03C128.69,6.97,128.7,6.96,128.7,6.96z"/>
			<path class="st0" d="M127.54,7.87c-0.07,0.03-0.14,0.06-0.21,0.07c-0.02,0-0.05,0-0.06-0.02c0-0.01,0-0.02,0.01-0.03
				c0.03-0.04,0.06-0.07,0.1-0.09c-0.06,0.03-0.13,0.05-0.21,0.06c-0.03,0-0.07,0-0.07-0.03c0-0.01,0.01-0.02,0.01-0.03
				c0.03-0.03,0.06-0.06,0.1-0.09c-0.06,0.04-0.12,0.07-0.19,0.09c-0.03,0.01-0.06,0.01-0.08,0c-0.02-0.01-0.02-0.04-0.01-0.05
				c-0.04,0.02-0.09,0.04-0.13,0.03c-0.01,0-0.02,0-0.02-0.01c-0.02-0.02,0-0.06,0.02-0.08c-0.03,0.03-0.05,0.05-0.07,0.09
				c-0.01,0.02-0.02,0.04,0,0.06c0.01,0,0.02,0,0.02,0c0.02,0,0.03,0,0.05,0c0.01,0,0.02,0,0.03-0.01c0.01,0,0.02-0.01,0.03-0.01
				c0.01,0,0.03-0.01,0.03-0.01c-0.02,0.04,0.03,0.08,0.07,0.08c0.04,0,0.08-0.02,0.12-0.05c-0.01,0.02,0,0.05,0.02,0.06
				c0.02,0.01,0.05,0.01,0.07,0c0.04-0.01,0.08-0.02,0.12-0.04c-0.02,0.04-0.07,0.07-0.05,0.1c0.01,0.01,0.03,0.02,0.04,0.02
				c0.07,0.01,0.14,0,0.19-0.04c0.01-0.01,0.03-0.02,0.04-0.02c0.01,0,0.02,0.01,0.03,0.01c0.02,0.01,0.05,0.01,0.07-0.01
				C127.58,7.95,127.54,7.91,127.54,7.87z"/>
			<path class="st0" d="M126.66,8.14c0-0.01,0-0.02,0-0.03c0,0,0-0.01,0.01-0.01c0,0-0.01,0-0.01,0.01c0,0-0.01,0-0.01,0.01
				c-0.01,0-0.02,0.01-0.02,0.01c-0.02,0.01-0.03,0.01-0.05,0.01c-0.01,0-0.02,0-0.04,0c-0.01,0-0.01,0-0.02,0
				c-0.01,0-0.01,0-0.01-0.01c0,0-0.01-0.01-0.01-0.02c0-0.01,0-0.01,0-0.02c0,0,0,0,0-0.01c0-0.01,0-0.01,0.01-0.02
				c0,0,0.01-0.01,0.01-0.01c-0.04,0.03-0.08,0.04-0.13,0.05c-0.01,0-0.02,0-0.02,0c-0.01-0.01-0.01-0.03,0-0.04
				c0.04-0.06,0.08-0.11,0.14-0.16c-0.06,0.04-0.11,0.08-0.15,0.13c-0.02,0.02-0.04,0.05-0.03,0.07c0.01,0.02,0.03,0.03,0.06,0.03
				c0.02,0,0.05-0.01,0.07-0.03c0.01,0,0.01-0.01,0.02-0.01c0,0,0.01,0,0.02-0.01c-0.01,0.02-0.01,0.03-0.01,0.05
				c0,0.01,0,0.02,0.01,0.02c0,0.01,0.01,0.01,0.02,0.01c0.01,0,0.02,0,0.03,0c0.01,0,0.02-0.01,0.04-0.01
				c0.02-0.01,0.03-0.02,0.05-0.03c0.01-0.01,0.02-0.02,0.03-0.03c0,0,0,0,0.01-0.01c0,0,0,0.01,0,0.01c0,0,0,0.01,0,0.01
				c0,0.01,0,0.02,0,0.02c0,0.01,0.01,0.02,0.02,0.02c0,0,0.01,0,0.01,0c0,0,0.01,0,0.01,0c0.02,0,0.03-0.01,0.05-0.02
				c0.04-0.03,0.08-0.07,0.1-0.12c-0.05,0.03-0.1,0.06-0.15,0.08C126.69,8.14,126.66,8.15,126.66,8.14z"/>
			<path class="st0" d="M131.32,7.4c0.02,0.01,0.02,0.02,0.01,0.04c-0.01,0.02-0.02,0.02-0.04,0.03c-0.03,0-0.06-0.01-0.09-0.03
				c0.01,0.02,0,0.04-0.02,0.04c-0.02,0.01-0.04,0-0.05-0.01l-0.07-0.02c0.01,0.01,0.01,0.03,0,0.04c-0.01,0.01-0.04,0.01-0.06,0
				c-0.05-0.01-0.1-0.03-0.15-0.05c0.02,0.03,0.05,0.05,0.07,0.08c0.02,0.03,0.01,0.07-0.02,0.09c-0.03,0.01-0.06-0.02-0.09-0.03
				c0.01,0.01,0.03,0.03,0.04,0.05c0.01,0.02,0,0.04-0.01,0.06c-0.02,0.01-0.04,0.01-0.06,0c-0.02-0.01-0.04-0.02-0.06-0.02
				c0.03,0.01,0.04,0.04,0.03,0.07c-0.01,0.02-0.04,0.03-0.06,0.02c0,0,0,0,0,0c0,0,0.01,0.01,0.01,0.02
				c0.01,0.02,0.01,0.05-0.01,0.06c-0.02,0.03-0.07,0.03-0.09,0c0.01,0.03,0.03,0.06,0.06,0.08c0.01,0.01,0.03,0.01,0.04,0.01
				c0.02,0,0.05-0.03,0.04-0.05c0-0.01-0.01-0.02-0.01-0.03c0-0.01-0.01-0.02-0.02-0.03c0.01,0.01,0.02,0.01,0.03,0.01
				c0,0,0.01,0,0.01,0c0.01,0,0.01-0.01,0.02-0.02c0.01-0.01,0.01-0.02,0.01-0.03c0-0.01,0-0.02,0-0.03c0,0,0-0.01-0.01-0.01
				c0,0,0-0.01-0.01-0.01c0.02,0.02,0.06,0.04,0.09,0.03c0.04-0.01,0.06-0.06,0.03-0.09c0.03,0.01,0.07-0.01,0.08-0.03
				c0.02-0.03,0.01-0.06-0.01-0.09c0.03,0,0.07,0,0.1,0c0.02,0,0.04,0,0.04-0.02c0,0,0.03,0.02,0.03,0.02
				c0.01,0.01,0.02,0.01,0.04,0.01c0.02,0,0.05,0,0.07-0.01c0,0,0.03-0.03,0.02-0.04c0.02,0.01,0.04,0.03,0.07,0.03
				c0.03,0,0.05-0.01,0.06-0.03C131.38,7.45,131.35,7.41,131.32,7.4z"/>
			<path class="st0" d="M131.6,7.5c-0.02,0-0.03-0.01-0.04-0.02c0.01,0.02,0.04,0.03,0.06,0.04c0.02,0.01,0.04,0.01,0.06,0.01
				c0.02,0,0.04-0.01,0.05-0.02c0,0,0-0.01,0-0.01c0.02,0.01,0.05,0.03,0.07,0.02c0.03,0,0.05-0.02,0.05-0.05c0-0.01,0-0.01,0-0.01
				c0,0,0.01,0,0.02,0c0.02,0.01,0.04,0.02,0.06,0.03c0.02,0.01,0.05,0,0.06-0.01c0.01-0.01,0.01-0.04,0-0.05
				c-0.01-0.02-0.02-0.03-0.04-0.04c0,0-0.01-0.01-0.01-0.01c0,0.01,0.01,0.02,0.01,0.03c0,0.02-0.03,0.04-0.05,0.04
				c-0.02,0-0.05-0.01-0.07-0.02c-0.03-0.01-0.06-0.02-0.09-0.04c0.01,0.01,0.02,0.01,0.03,0.02c0.01,0.01,0.01,0.01,0.01,0.02
				c0,0.02-0.01,0.03-0.03,0.03c-0.02,0-0.03,0-0.05,0c-0.04-0.01-0.07-0.03-0.1-0.05c0.01,0.01,0.02,0.03,0.03,0.05
				C131.63,7.48,131.62,7.5,131.6,7.5z"/>
			<path class="st0" d="M130.43,6.97c0.01,0.01,0.03,0.03,0.05,0.03c0.01,0.01,0.03,0.01,0.04,0.01c0.01,0,0.02,0,0.03,0
				c0,0,0,0,0.01,0c0.02-0.02,0-0.04-0.01-0.06c0.03,0.03,0.08,0.05,0.12,0.06c0.02,0,0.04,0.01,0.05-0.01
				c0.01-0.02,0-0.04-0.01-0.06c0.04,0.04,0.09,0.07,0.15,0.07c0.06,0,0.05-0.06,0.04-0.1c0,0,0.01,0,0.02,0.01
				c0.01,0,0.01,0,0.02,0.01c0.04,0.01,0.08,0.03,0.12,0.05c0.04,0.02,0.07,0.04,0.1,0.07c0.01,0.01,0.01,0.01,0.02,0.02
				c0.01,0.01,0.01,0.02,0.01,0.03c0,0.01-0.01,0.02-0.02,0.02c0.06,0.02,0.12,0.06,0.17,0.11c0.01,0.01,0.02,0.02,0.03,0.04
				c0.01,0.02,0,0.04-0.01,0.05c0.02,0.01,0.05,0.02,0.07,0.02c0.01,0,0.02,0,0.03-0.01c0.01-0.01,0.01-0.04,0-0.05
				c-0.05-0.08-0.12-0.13-0.21-0.16c0.01,0,0.02-0.02,0.02-0.03c0-0.01-0.01-0.02-0.02-0.03c-0.06-0.06-0.14-0.09-0.21-0.12
				c-0.08-0.03-0.16-0.05-0.23-0.08c0.02,0.01,0.04,0.02,0.05,0.04c0.01,0.02,0.03,0.05,0.01,0.07c-0.01,0.02-0.04,0.01-0.05,0
				c-0.03-0.01-0.06-0.02-0.08-0.04c-0.03-0.01-0.05-0.02-0.07-0.04c0,0,0,0.01,0,0.01c0,0.01,0,0.01,0,0.02
				c-0.02,0.03-0.08-0.01-0.1-0.01c-0.01,0-0.03,0-0.03,0.01c-0.01,0.01,0,0.02-0.01,0.03c0,0.02-0.02,0.03-0.04,0.03
				C130.46,6.97,130.45,6.97,130.43,6.97C130.44,6.96,130.43,6.96,130.43,6.97c0-0.01-0.01-0.01-0.01-0.01
				C130.42,6.96,130.43,6.97,130.43,6.97z"/>
			<path class="st0" d="M131.58,7.95c0.01,0,0.02-0.01,0.03-0.01c0.01,0,0.03,0.01,0.04,0.02c0.06,0.04,0.13,0.05,0.19,0.04
				c0.02,0,0.04-0.01,0.04-0.02c0.02-0.04-0.04-0.07-0.05-0.1c0.04,0.02,0.08,0.03,0.12,0.04c0.02,0,0.05,0.01,0.07,0
				c0.02-0.01,0.04-0.04,0.02-0.06c0.04,0.02,0.07,0.05,0.12,0.05c0.04,0,0.09-0.04,0.07-0.08c0,0.01,0.02,0.01,0.03,0.01
				c0.01,0,0.02,0.01,0.03,0.01c0.01,0,0.02,0,0.03,0.01c0.02,0,0.03,0,0.05,0c0.01,0,0.02,0,0.02,0c0.02-0.01,0.01-0.04,0-0.06
				c-0.02-0.03-0.05-0.06-0.07-0.09c0.02,0.02,0.04,0.06,0.02,0.08c-0.01,0.01-0.02,0.01-0.02,0.01c-0.05,0-0.09-0.01-0.13-0.03
				c0.01,0.02,0.01,0.04-0.01,0.05c-0.02,0.02-0.06,0.01-0.08,0c-0.07-0.02-0.13-0.05-0.19-0.09c0.04,0.02,0.07,0.05,0.1,0.09
				c0.01,0.01,0.02,0.02,0.01,0.03c0,0.03-0.04,0.03-0.07,0.03c-0.07-0.01-0.14-0.03-0.21-0.06c0.04,0.02,0.07,0.05,0.1,0.09
				c0.01,0.01,0.01,0.02,0.01,0.03c0,0.02-0.03,0.02-0.06,0.02c-0.07-0.01-0.15-0.04-0.21-0.07c0.01,0.04-0.03,0.08-0.07,0.08
				C131.53,7.96,131.55,7.96,131.58,7.95z"/>
			<path class="st0" d="M132.38,8.18c0.01,0.01,0.03,0.02,0.05,0.02c0.01,0,0.01,0,0.01,0c0,0,0.01,0,0.01,0
				c0.01,0,0.02-0.01,0.02-0.02c0-0.01,0-0.02,0-0.02c0,0,0-0.01,0-0.01c0,0,0-0.01,0-0.01c0,0,0,0,0.01,0.01
				c0.01,0.01,0.02,0.02,0.03,0.03c0.02,0.01,0.03,0.02,0.05,0.03c0.01,0,0.02,0.01,0.04,0.01c0.01,0,0.02,0,0.03,0
				c0.01,0,0.01-0.01,0.02-0.01c0-0.01,0.01-0.01,0.01-0.02c0-0.02,0-0.04-0.01-0.05c0,0,0.01,0,0.02,0.01
				c0.01,0,0.01,0.01,0.02,0.01c0.02,0.01,0.04,0.02,0.07,0.03c0.02,0,0.05-0.01,0.06-0.03c0.01-0.03-0.01-0.05-0.03-0.07
				c-0.04-0.05-0.1-0.09-0.15-0.13c0.05,0.05,0.1,0.1,0.14,0.16c0.01,0.01,0.01,0.03,0,0.04c-0.01,0-0.01,0-0.02,0
				c-0.05-0.01-0.09-0.03-0.13-0.05c0,0,0.01,0.01,0.01,0.01c0,0,0.01,0.01,0.01,0.02c0,0,0,0,0,0.01c0,0.01,0,0.01,0,0.02
				c0,0.01,0,0.01-0.01,0.02c0,0-0.01,0-0.01,0.01c-0.01,0-0.01,0-0.02,0c-0.01,0-0.02,0-0.04,0c-0.02,0-0.04-0.01-0.05-0.01
				c-0.01,0-0.02-0.01-0.02-0.01c0,0-0.01,0-0.01-0.01c0,0-0.01-0.01-0.01-0.01c0,0,0,0.01,0.01,0.01c0,0.01,0.01,0.02,0,0.03
				c0,0.01-0.02,0-0.03,0c-0.05-0.02-0.11-0.05-0.15-0.08C132.3,8.1,132.34,8.15,132.38,8.18z"/>
			<path class="st0" d="M129.45,9.23c-0.13-0.02-0.17-0.15-0.17-0.15l-0.03,0.05C129.34,9.25,129.45,9.23,129.45,9.23z"/>
			<path class="st0" d="M129.19,7.17c-0.02,0-0.04,0.02-0.04,0.04c0,0.02,0.02,0.04,0.04,0.04c0.02,0,0.04-0.02,0.04-0.04
				C129.23,7.18,129.21,7.17,129.19,7.17z M129.19,7.22c-0.01,0-0.02-0.01-0.02-0.02c0-0.01,0.01-0.02,0.02-0.02
				s0.02,0.01,0.02,0.02C129.21,7.22,129.2,7.22,129.19,7.22z"/>
			<path class="st0" d="M133.86,9.65c-0.01-0.02-0.04-0.03-0.06-0.03l-0.54,0.12l-0.06,0.29l-0.14,0.09c0-0.25-0.01-0.51-0.03-0.78
				l0.29,0.06l0.32-0.44c0.02-0.02,0.02-0.05,0-0.07c-0.01-0.02-0.04-0.03-0.06-0.03l-0.54,0.12l-0.06,0.29l-1.3,0.85
				c-0.01-0.11-0.01-0.23-0.02-0.34c0,0,0-0.01,0-0.01c0.03,0,0.06,0.01,0.09,0.01c0.07,0,0.13-0.01,0.19-0.05
				c0.18-0.12,0.24-0.47,0.25-0.54l0-0.01l-0.02-0.01c-0.03-0.02-0.12-0.09-0.14-0.18c0.03,0,0.06,0.01,0.09,0.02
				c0.02,0.01,0.05,0.02,0.08,0.04c0.07,0.04,0.16,0.08,0.27,0.08c0.04,0,0.07,0,0.11-0.02c0.17-0.06,0.24-0.14,0.24-0.15l0.02-0.02
				l-0.21-0.02l0.07-0.2l-0.04,0.03c0,0-0.1,0.07-0.15,0.09l-0.01,0c-0.04,0.01-0.09,0.03-0.22-0.02c-0.08-0.03-0.15-0.05-0.21-0.04
				c-0.08,0.01-0.13,0.06-0.18,0.1c-0.05,0.04-0.1,0.09-0.12,0.15l0,0.01c0,0.01,0,0.02-0.01,0.03l0,0l0,0c0,0.02,0,0.04,0,0.06
				c0,0.03,0.01,0.06,0.02,0.08c0.01,0.02,0.02,0.04,0.03,0.06c0,0,0,0,0,0c-0.13,0-0.31-0.02-0.55-0.1l0,0v0
				c-0.18-0.05-0.35-0.08-0.52-0.08h0c-0.24,0-0.44,0.05-0.6,0.13c0-0.01,0-0.01,0-0.02c0-0.01-0.01-0.02-0.02-0.04
				c-0.02-0.03-0.04-0.06-0.04-0.1c-0.01-0.04,0-0.08,0.01-0.12c0.01-0.06,0.01-0.11-0.01-0.17c-0.01-0.03-0.02-0.06-0.05-0.08
				c-0.01-0.01-0.02-0.02-0.03-0.03c0,0-0.01-0.01-0.01-0.01c0.02-0.03,0.03-0.07,0.03-0.1c0,0,0-0.01,0.01-0.01l0,0
				c0,0,0.01-0.01,0.01-0.01c0.01-0.01,0.01-0.01,0.01-0.02c0.01-0.02,0.02-0.04,0.01-0.07l0-0.04c0.01,0,0.01-0.01,0.02-0.01
				c0.02,0.04,0.05,0.07,0.09,0.07c0.04,0,0.09-0.02,0.12-0.05c0.01,0.01,0.02,0.02,0.03,0.03c0.04,0.01,0.07-0.01,0.08-0.02
				c0.03-0.02,0.06-0.04,0.08-0.07c0.01,0,0.02,0,0.03,0c0.04-0.01,0.07-0.05,0.08-0.08l0-0.01c0.01-0.02,0.01-0.02,0.01-0.02
				c0.03-0.02,0.05-0.04,0.05-0.07c0,0,0.01,0,0.01,0c0.01-0.01,0.02-0.01,0.03,0c0.02,0.02,0.04,0.02,0.06,0.01
				c0.02,0.02,0.04,0.02,0.06,0.02c0.02,0,0.03-0.01,0.04-0.02c0.01,0,0.01,0.01,0.02,0.01c0.01,0.01,0.02,0.02,0.04,0.03l0.01,0.01
				c0.03,0.04,0.06,0.05,0.09,0.05c0.02,0,0.04-0.01,0.07-0.03c0.03,0.02,0.06,0.02,0.08,0.02c0.02-0.01,0.05-0.02,0.07-0.06
				c0.02-0.04,0.03-0.07,0.03-0.11c0.02,0,0.04-0.01,0.05-0.03c0,0,0.01,0.01,0.01,0.01c0.01,0.01,0.01,0.01,0.02,0.01
				c0.04,0.03,0.08,0.05,0.12,0.07c0.01,0.01,0.03,0.01,0.05,0.02c0.02,0,0.03,0,0.04,0c0,0,0.01,0.01,0.02,0.01
				c0.11,0.08,0.18,0.12,0.23,0.09c0.01,0,0.01-0.01,0.02-0.02c0.07,0.05,0.14,0.09,0.22,0.12c0.02,0.01,0.03,0.01,0.05,0
				c0.01,0,0.02-0.01,0.03-0.02c0.02,0.01,0.04,0.02,0.05,0.04c0.06,0.04,0.12,0.09,0.19,0.12c0.04,0.02,0.07,0.01,0.09,0
				c0.02-0.01,0.03-0.04,0.04-0.06c0.04,0.03,0.08,0.07,0.14,0.08l0,0c0.03,0.01,0.05,0,0.07-0.02c0.05,0.04,0.09,0.07,0.15,0.1
				c0.03,0.01,0.06,0.01,0.08-0.01c0.01-0.01,0.02-0.02,0.02-0.03c0.04,0.02,0.09,0.04,0.13,0.07c0.02,0.01,0.07,0.05,0.12,0.02
				c0.01-0.01,0.02-0.02,0.03-0.03c0.02,0.02,0.05,0.04,0.08,0.06c0.02,0.02,0.09,0.06,0.14,0.04c0.01-0.01,0.03-0.02,0.03-0.05
				c0.01,0.01,0.03,0.02,0.05,0.03c0.03,0.01,0.05,0.03,0.08,0.05c0.05,0.04,0.11,0.07,0.18,0.09l0,0c0,0,0.01,0,0.01,0
				c0.02,0,0.03,0,0.04-0.01c0.02-0.01,0.02-0.03,0.02-0.06c-0.01-0.1-0.07-0.16-0.13-0.22c-0.14-0.16-0.31-0.3-0.47-0.44
				c-0.06-0.05-0.12-0.1-0.19-0.16c-0.41-0.36-0.84-0.69-1.31-1c-0.41-0.27-0.83-0.42-1.24-0.44c-0.18-0.01-0.32,0.01-0.43,0.07
				c-0.25,0.13-0.17,0.41-0.11,0.6l0,0.02c0.04,0.11,0.04,0.18,0.01,0.23c-0.01,0.02-0.03,0.03-0.05,0.04c0,0,0,0,0,0l-0.01-0.01
				c-0.1-0.12-0.27-0.11-0.32-0.11c-0.02-0.01-0.04-0.03-0.05-0.03c0.01-0.08-0.01-0.15-0.05-0.2c-0.01-0.02-0.03-0.04-0.04-0.05
				c0,0,0,0,0,0c0,0,0,0,0,0c0-0.03-0.01-0.05-0.03-0.07c-0.02-0.02-0.06-0.03-0.09-0.03c-0.03,0-0.06,0.01-0.08,0.02l-0.01,0
				c-0.02,0.01-0.04,0.02-0.05,0.01c0,0-0.01,0-0.01,0c0.02-0.13,0-0.25-0.07-0.33c-0.12-0.14-0.35-0.16-0.53-0.15
				c-0.41,0.02-0.83,0.17-1.24,0.44c-0.47,0.31-0.9,0.64-1.31,1c-0.06,0.05-0.12,0.11-0.19,0.16c-0.16,0.14-0.33,0.28-0.48,0.44
				c-0.05,0.06-0.12,0.13-0.12,0.22c0,0.04,0.02,0.06,0.03,0.06c0.01,0.01,0.02,0.01,0.03,0.01c0.03,0,0.08-0.02,0.13-0.05
				c0.03-0.02,0.06-0.04,0.09-0.06c0.02-0.01,0.05-0.03,0.07-0.05c0.01-0.01,0.02,0,0.03,0.01c0.01,0.01,0.02,0.02,0.03,0.03
				c0.04,0.02,0.1-0.01,0.2-0.08c0.01-0.01,0.02-0.01,0.03,0c0.01,0.01,0.01,0.01,0.02,0.02c0.05,0.03,0.1,0,0.12-0.02
				c0.03-0.02,0.07-0.04,0.11-0.06c0.01,0,0.02,0,0.02,0.01c0,0,0.01,0.01,0.01,0.01c0.02,0.02,0.05,0.02,0.08,0.01
				c0.05-0.02,0.09-0.06,0.14-0.09c0,0,0.01-0.01,0.01-0.01c0.01,0.01,0.04,0.02,0.07,0.02l0,0c0.05-0.01,0.08-0.04,0.12-0.06
				c0.01-0.01,0.03-0.01,0.03,0.01c0.01,0.01,0.02,0.03,0.03,0.03c0.02,0.01,0.04,0.02,0.08,0c0.07-0.03,0.14-0.07,0.2-0.12
				c0.02-0.01,0.04-0.03,0.05-0.04c0.01,0.01,0.02,0.01,0.03,0.02c0.02,0.01,0.03,0,0.05,0c0.07-0.03,0.14-0.07,0.2-0.11
				c0.01-0.01,0.02,0,0.03,0c0.01,0.01,0.02,0.01,0.03,0.01c0.05,0.01,0.11-0.03,0.21-0.09c0.01-0.01,0.02-0.01,0.02-0.01
				c0.01,0,0.02,0.01,0.04,0l0.01,0c0.05-0.01,0.09-0.04,0.14-0.07l0.02-0.01c0,0,0.01-0.01,0.02-0.01c0,0,0.01-0.01,0.01-0.01
				c0.01,0.01,0.02,0.02,0.04,0.02c0.01,0,0.01,0.01,0.01,0.02c0.01,0.06,0.03,0.13,0.08,0.15c0.02,0.01,0.05,0.01,0.08-0.01
				c0.01,0,0.02,0,0.02,0c0.02,0.02,0.04,0.02,0.06,0.02c0.02,0,0.05-0.01,0.09-0.05l0.01-0.01c0.01-0.02,0.02-0.03,0.04-0.03
				c0.01,0,0.01-0.01,0.02-0.01c0.01,0.01,0.03,0.02,0.04,0.02c0.02,0,0.05,0,0.06-0.02c0.02,0.01,0.05,0.01,0.06-0.01
				c0.01-0.01,0.02-0.01,0.03,0c0,0,0.01,0,0.01,0c0.01,0.03,0.02,0.06,0.05,0.07c0,0,0.01,0,0.01,0.02l0,0.01
				c0.01,0.03,0.04,0.07,0.08,0.08c0.01,0,0.02,0,0.04-0.01c0,0,0,0,0,0l0.01,0.02l0.02-0.01c0.03-0.02,0.06-0.06,0.08-0.1
				c0.01,0.05,0.03,0.1,0.06,0.14c-0.09,0.07-0.14,0.2-0.12,0.3l0,0.02l0.02-0.01c0.03-0.02,0.06-0.06,0.09-0.1
				c0.01,0.06,0.03,0.12,0.07,0.17c-0.09,0.09-0.11,0.2-0.08,0.31l0.01,0.02l0.02-0.01c0.03-0.02,0.06-0.06,0.08-0.1
				c0.01,0.03,0.01,0.06,0.03,0.09c0.03,0.06,0.02,0.07,0.07,0.11c-0.01,0.01-0.02,0.03-0.02,0.04c-0.16-0.07-0.35-0.12-0.57-0.12h0
				c-0.17,0-0.34,0.03-0.52,0.08v0l0,0c-0.24,0.08-0.42,0.1-0.55,0.1c0,0,0,0,0,0c0.01-0.02,0.02-0.04,0.03-0.06
				c0.01-0.03,0.02-0.06,0.02-0.08c0-0.02,0-0.04,0-0.06l0,0l0,0c0-0.01,0-0.02-0.01-0.03l0-0.01c-0.02-0.06-0.08-0.11-0.12-0.15
				c-0.05-0.04-0.1-0.09-0.18-0.1c-0.06-0.01-0.13,0.01-0.21,0.04c-0.13,0.05-0.18,0.04-0.22,0.02l-0.01,0
				c-0.05-0.02-0.15-0.09-0.15-0.09l-0.04-0.03l0.07,0.2l-0.21,0.02l0.02,0.02c0,0,0.07,0.09,0.24,0.15
				c0.04,0.01,0.08,0.02,0.11,0.02c0.11,0,0.19-0.04,0.27-0.08c0.03-0.01,0.05-0.03,0.08-0.04c0.03-0.01,0.06-0.02,0.09-0.02
				c-0.02,0.09-0.11,0.16-0.14,0.18l-0.02,0.01l0,0.01c0.01,0.07,0.07,0.42,0.25,0.54c0.05,0.03,0.12,0.05,0.19,0.05
				c0.03,0,0.06,0,0.09-0.01c-0.01,0.12-0.02,0.23-0.03,0.35l-1.3-0.85l-0.06-0.29c0,0-0.54-0.12-0.54-0.12
				c-0.02,0-0.05,0.01-0.06,0.03c-0.01,0.02-0.01,0.05,0,0.07l0.32,0.44l0.29-0.06c-0.02,0.27-0.03,0.53-0.03,0.78l-0.14-0.09
				l-0.06-0.29c0,0-0.54-0.12-0.54-0.12c-0.02,0-0.05,0.01-0.06,0.03c-0.01,0.02-0.01,0.05,0,0.07l0.32,0.44l0.28-0.06
				c-0.2,1.5,0.02,2.52,0.25,3.11c0.23,0.61,0.5,0.9,0.54,0.94c0.07,0.09,0.55,0.61,1.3,0.61c0.32,0,0.69-0.1,1.1-0.37
				c-0.13,0.42-0.45,0.91-0.46,0.91l-0.02,0.03l0.03,0c0.15,0,0.26,0.01,0.35,0.02l-0.05,0.23c-0.01,0.02-0.01,0.04-0.01,0.04
				c0,0.01,0,0.04,0.03,0.06c0.03,0.03,0.1,0.04,0.19,0.02c0.04-0.01,0.07-0.01,0.1,0l0.01,0.24c0,0,0,0.01,0,0.01
				c0,0.01,0,0.01,0.01,0.02c0.03,0.04,0.14,0.07,0.32,0.07c0.18,0,0.29-0.02,0.32-0.07c0.01-0.01,0.01-0.02,0.01-0.03l0.01-0.24
				c0.02,0,0.06,0,0.1,0c0.09,0.01,0.15,0.01,0.19-0.02c0.02-0.02,0.03-0.04,0.03-0.06c0-0.01,0-0.01,0-0.02
				c0-0.01-0.01-0.03-0.01-0.04c-0.01-0.02-0.01-0.05-0.02-0.07c-0.01-0.03-0.01-0.05-0.02-0.08c0-0.02-0.01-0.03-0.01-0.05
				c0,0,0,0,0,0c0.09-0.02,0.21-0.03,0.35-0.02l0.03,0l-0.02-0.03c0-0.01-0.33-0.5-0.46-0.92c0.41,0.28,0.78,0.38,1.1,0.38
				c0.74,0,1.23-0.53,1.3-0.61c0.01-0.01,0.29-0.29,0.54-0.94c0.22-0.59,0.45-1.61,0.25-3.11l0.28,0.06l0.32-0.44
				C133.87,9.7,133.87,9.67,133.86,9.65z M133.1,9.05l0.42-0.09l-0.25,0.35l-0.21-0.05L133.1,9.05z M125.88,9.3l-0.25-0.35
				l0.42,0.09l0.04,0.21L125.88,9.3z M125.66,10.07l-0.25-0.35l0.42,0.09l0.04,0.21L125.66,10.07z M132.34,9.78l0.6-0.39
				c0.02,0.27,0.03,0.54,0.03,0.79l-0.68,0.45C132.32,10.37,132.33,10.09,132.34,9.78z M131.68,10.22l0.28-0.19
				c-0.01,0.31-0.04,0.6-0.08,0.86l-0.22,0.14C131.68,10.78,131.69,10.51,131.68,10.22z M131.65,11.15l0.35-0.23
				c-0.02,0.48-0.09,0.97-0.24,1.43c-0.08,0.24-0.18,0.47-0.3,0.69c-0.12,0.22-0.26,0.42-0.42,0.61c-0.08,0.1-0.17,0.2-0.26,0.29
				c-0.07-0.06-0.11-0.12-0.14-0.16C131.11,13.2,131.53,12.33,131.65,11.15z M130.1,13.76c-0.01-0.02-0.02-0.02-0.04-0.02l-0.01,0
				c-0.01,0-0.01-0.01-0.01-0.01c0,0,0.01,0,0.01-0.01c0,0,0.01-0.01,0.01-0.01c0.02-0.02,0.02-0.05,0-0.08
				c-0.03-0.03-0.08-0.05-0.11-0.04c-0.02,0-0.03,0.01-0.04,0.02c-0.01,0-0.01,0.01-0.02,0.01c-0.01,0-0.03,0.01-0.05,0
				c-0.01,0-0.01-0.01-0.01-0.02c-0.01-0.01-0.01-0.02-0.02-0.02c-0.02-0.01-0.03-0.01-0.05-0.01l-0.19-0.01
				c-0.03,0-0.04,0.01-0.05,0.03c0,0-0.01,0-0.03,0c-0.01,0-0.02,0-0.03,0c-0.02,0.01-0.03,0.02-0.04,0.04
				c-0.01,0.01-0.01,0.02-0.02,0.02c-0.02,0.01-0.04,0.01-0.07,0.01c-0.01,0-0.03,0-0.04,0c-0.04,0-0.09,0.02-0.11,0.05
				c-0.02,0.02-0.02,0.04-0.01,0.07c0,0,0,0.01,0.01,0.01c0,0,0,0.01,0,0.01c0,0.01,0,0.02-0.01,0.03
				c-0.01,0.01-0.03,0.01-0.05,0.02c-0.02,0-0.05,0.01-0.07,0.02c-0.01,0.01-0.01,0.01-0.01,0.02c0,0.01-0.01,0.01-0.01,0.01
				c0,0-0.01,0.01-0.01,0.01c-0.01,0-0.01,0-0.02,0.01c-0.04,0.02-0.04,0.07-0.04,0.11c0,0.02,0,0.03,0,0.04
				c-0.3-0.29-0.61-0.7-0.86-1.23h0.25c0.01,0.01,0.01,0.02,0.02,0.03c0.04,0.08,0.07,0.16,0.14,0.21c0.02,0.02,0.03,0.04,0.04,0.07
				c0.01,0.02,0.03,0.05,0.04,0.07c0.03,0.03,0.06,0.05,0.09,0.08c0.09,0.06,0.19,0.13,0.31,0.15c0.03,0.01,0.06,0.01,0.08,0.01
				c0.03,0,0.07,0.01,0.1,0.02c0.02,0.01,0.05,0.01,0.07,0.02c0.02,0.01,0.04,0.01,0.06,0.02c0.07,0.02,0.15,0.02,0.22,0.03
				c0.12,0,0.25,0.01,0.37-0.02l0.02,0c0.06-0.02,0.12-0.03,0.17,0c0.02,0.01,0.03,0.03,0.04,0.05c0.02,0.04,0.04,0.07,0.09,0.08
				c0.01,0,0.01,0,0.01,0c0,0,0,0.01,0,0.02c0,0.01,0,0.01,0,0.02c0,0.02,0.02,0.04,0.04,0.05c0.01,0,0.01,0,0.02,0
				c0.02,0,0.04-0.01,0.05-0.02c0.03-0.04,0.01-0.1-0.02-0.12l0,0c0,0-0.01-0.01-0.01-0.01c0,0,0-0.01,0.01-0.02
				c0.05-0.07,0.12-0.11,0.2-0.12c0.01,0,0.01,0,0.02,0c0.03,0,0.06,0,0.08-0.02l0.02-0.02l-0.03-0.01
				c-0.02-0.01-0.03-0.02-0.05-0.03c0.06-0.03,0.13-0.04,0.2,0.03c-0.18,0.28-0.39,0.51-0.58,0.7c0-0.01-0.01-0.02-0.01-0.03l0,0
				c0-0.01-0.01-0.01-0.01-0.02c0,0-0.01-0.01-0.01-0.01c0,0,0-0.01,0-0.02c0-0.01,0-0.01,0-0.02c-0.01-0.03-0.03-0.06-0.08-0.07
				c-0.01,0-0.02-0.01-0.02-0.01c0-0.01,0.01-0.03,0.02-0.04C130.1,13.83,130.12,13.8,130.1,13.76z M129.12,9.73
				c-0.52,0.18-0.94,0.06-1.18-0.07c0.05-0.01,0.1-0.03,0.16-0.04c0.48-0.09,0.83-0.01,1.02,0.05
				C129.12,9.69,129.12,9.71,129.12,9.73z M129.31,9.75c0.03,0.04,0.07,0.07,0.11,0.1l0.02,0.01l0-0.02c0.01-0.04,0-0.09-0.01-0.14
				c0.03-0.02,0.07-0.04,0.1-0.06c0.01,0.02,0.02,0.04,0.03,0.05l0.01,0.02l0.01-0.02c0.01-0.02,0.02-0.04,0.03-0.06
				c0.34,0.21,0.66,0.28,0.92,0.28c0.33,0,0.59-0.11,0.76-0.2c0,0,0.02-0.01,0.03-0.02c0.07,0.02,0.13,0.04,0.19,0.05
				c0,0.01,0,0.02,0,0.03c0.05,0.56,0.04,1.06-0.01,1.52h-3.85c-0.06-0.46-0.07-0.98-0.01-1.54c0.06-0.01,0.12-0.03,0.19-0.05
				C128.11,9.85,128.65,10.04,129.31,9.75z M128.98,8.58L128.98,8.58c0-0.01,0-0.01,0-0.02c0.03,0.03,0.07,0.05,0.11,0.06l0.02,0.01
				l0-0.02c0-0.05-0.03-0.1-0.07-0.15l0,0c-0.03-0.03-0.07-0.06-0.11-0.08c0.01-0.03,0.01-0.05,0.01-0.09l0.11,0.09l0.03,0.04
				l0,0.09c0,0.01,0.01,0.01,0.01,0.02c0,0,0.01,0.01,0.01,0.01l0,0c0,0,0.01,0.01,0.01,0.01c0,0.03,0.01,0.07,0.03,0.1
				c0,0-0.01,0.01-0.01,0.01c-0.01,0.01-0.02,0.02-0.03,0.03c-0.02,0.02-0.03,0.05-0.04,0.07c-0.03-0.02-0.07-0.05-0.08-0.06
				C129,8.69,128.99,8.64,128.98,8.58z M129.03,7.33c0,0.02,0,0.04-0.01,0.07c-0.01,0.04-0.02,0.07-0.04,0.1
				c-0.03,0.05-0.07,0.09-0.1,0.12c0-0.08,0.03-0.17,0.09-0.23C128.98,7.37,129,7.35,129.03,7.33z M129,7.27
				c-0.07-0.01-0.12,0.01-0.16,0.05c0,0,0,0,0,0c0-0.02,0-0.03,0.01-0.04c0.01-0.01,0.01-0.02,0.02-0.03
				c0.01-0.02,0.03-0.04,0.06-0.05c0.01-0.01,0.03-0.01,0.04-0.01c0.01,0,0.03,0,0.04,0c0.01,0,0.02,0.01,0.02,0.03
				c0,0.01,0,0.02-0.01,0.04c0,0,0,0,0,0C129.01,7.27,129.01,7.27,129,7.27z M128.9,7.87L128.9,7.87c0-0.01,0-0.03,0-0.04
				c0.03,0.04,0.07,0.07,0.11,0.09l0.02,0.01l0-0.02c0-0.05-0.01-0.11-0.05-0.16l0,0c-0.02-0.03-0.06-0.07-0.09-0.09
				c0.04-0.03,0.09-0.07,0.12-0.13l0,0c0.02-0.03,0.03-0.07,0.04-0.1c0.01,0.04,0.03,0.08,0.05,0.11c0.03,0.05,0.08,0.09,0.13,0.12
				c-0.06,0.1-0.06,0.22-0.01,0.31l0.01,0.02l0.02-0.02c0.03-0.03,0.05-0.08,0.06-0.14c0.03,0.06,0.07,0.12,0.13,0.15
				c-0.02,0.02-0.04,0.04-0.05,0.06c-0.05,0.06-0.07,0.15-0.06,0.23l0,0.02l0.02-0.01c0.04-0.02,0.08-0.06,0.1-0.12
				c0.01,0.07,0.04,0.13,0.08,0.18c-0.04,0.03-0.08,0.06-0.1,0.1c-0.03,0.05-0.04,0.1-0.04,0.16l0,0.02l0.02-0.01
				c0.04-0.01,0.07-0.04,0.11-0.09c0,0.07,0.01,0.14,0.04,0.2c-0.02,0.01-0.04,0.02-0.06,0.03c-0.06,0.05-0.11,0.12-0.12,0.2l0,0.02
				l0.02,0c0.04-0.01,0.08-0.03,0.12-0.07c-0.02,0.08-0.01,0.17,0.03,0.24c-0.02,0.03-0.05,0.06-0.06,0.1
				c-0.03,0.07-0.05,0.15-0.04,0.23c-0.05-0.04-0.11-0.09-0.18-0.14c-0.01-0.02-0.01-0.04-0.02-0.05l0,0c0-0.01-0.01-0.02-0.01-0.02
				c0.03,0.01,0.06,0.02,0.09,0.02c0.01,0,0.02,0,0.02,0l0.02,0l-0.01-0.02c-0.02-0.04-0.06-0.09-0.11-0.12l0,0
				c0,0-0.01,0-0.01-0.01c0-0.03-0.01-0.07-0.05-0.08c-0.01,0-0.03,0-0.04,0c0,0-0.01,0-0.01,0c0,0,0,0,0-0.01
				c-0.01-0.03-0.01-0.06-0.02-0.09c0.02,0.02,0.05,0.03,0.07,0.04l0.02,0.01l0-0.02c0-0.05-0.02-0.11-0.06-0.16l0,0
				c0,0-0.01-0.01-0.02-0.02c0-0.01,0.01-0.02,0.01-0.03c0.02-0.03,0.04-0.07,0.07-0.1c0,0,0.01-0.01,0.02-0.01
				c-0.03-0.02-0.04-0.03-0.05-0.07c0-0.02-0.01-0.05,0-0.07c0,0,0-0.01,0.01-0.01c-0.02,0-0.03-0.02-0.03-0.04
				c0-0.02-0.01-0.04,0-0.06l0-0.01l-0.07-0.1c0,0-0.07,0-0.11-0.06c0,0,0,0,0,0c0-0.01,0-0.02,0-0.03
				c0.03,0.02,0.06,0.04,0.09,0.05l0.02,0.01l0-0.02c0-0.05-0.02-0.11-0.06-0.16l0,0c-0.03-0.04-0.07-0.07-0.12-0.09
				C128.88,7.97,128.9,7.92,128.9,7.87z M128.87,7.67c0.04,0.02,0.07,0.06,0.09,0.09C128.99,7.8,129,7.84,129,7.87
				c-0.03-0.02-0.06-0.05-0.08-0.08c-0.01-0.02-0.02-0.04-0.03-0.07c0-0.01-0.01-0.02-0.01-0.03
				C128.88,7.69,128.88,7.68,128.87,7.67z M129.07,7.33c0.05,0.03,0.09,0.07,0.12,0.12c0.03,0.05,0.05,0.11,0.05,0.16
				c-0.04-0.03-0.08-0.06-0.11-0.11C129.09,7.44,129.07,7.38,129.07,7.33z M129.24,7.66c0.01,0.04,0.02,0.08,0.02,0.13
				c0,0.04-0.02,0.09-0.03,0.12C129.2,7.83,129.2,7.74,129.24,7.66z M129.28,7.65c0.05,0.03,0.09,0.08,0.11,0.12
				c0.02,0.04,0.04,0.09,0.04,0.13v0.02C129.35,7.88,129.29,7.77,129.28,7.65z M129.43,7.99c0,0.01,0,0.01,0,0.02
				c0,0.01,0,0.02,0,0.02c0,0.03-0.01,0.06-0.02,0.09c-0.02,0.04-0.04,0.07-0.07,0.09c0-0.06,0.02-0.13,0.06-0.18
				C129.41,8.02,129.42,8,129.43,7.99z M129.61,8.55c0,0.06-0.01,0.11-0.03,0.16l-0.01,0c-0.04-0.07-0.05-0.15-0.03-0.24
				c0.01-0.03,0.01-0.06,0.03-0.09C129.59,8.43,129.6,8.49,129.61,8.55z M129.59,8.3c0.03,0.02,0.06,0.06,0.08,0.09
				c0.02,0.04,0.03,0.08,0.03,0.12c-0.05-0.03-0.09-0.08-0.1-0.15C129.6,8.34,129.59,8.32,129.59,8.3z M129.5,9.44
				c-0.01,0.03-0.03,0.05-0.04,0.07c-0.02-0.08-0.01-0.17,0.03-0.24c0.01-0.03,0.03-0.05,0.05-0.07c0,0.02,0.01,0.04,0.01,0.06
				c0,0.02,0,0.04,0,0.06c-0.01,0.03-0.02,0.05-0.03,0.09C129.51,9.41,129.5,9.43,129.5,9.44z M129.5,9.55
				C129.5,9.55,129.5,9.55,129.5,9.55c-0.01,0-0.02-0.01-0.02-0.02c0.01-0.01,0.01-0.02,0.02-0.02C129.5,9.52,129.5,9.54,129.5,9.55
				z M129.26,9.52c0.04,0.03,0.08,0.08,0.11,0.13c0.03,0.05,0.04,0.11,0.04,0.16c-0.06-0.04-0.11-0.12-0.13-0.2
				C129.27,9.58,129.26,9.55,129.26,9.52z M129.26,9.68C129.26,9.68,129.26,9.68,129.26,9.68c-0.01,0-0.02,0-0.03,0
				c0-0.01,0.01-0.02,0.01-0.02l0,0c0,0,0-0.01,0-0.01C129.25,9.65,129.26,9.67,129.26,9.68z M129.39,9.62
				c-0.03-0.05-0.08-0.1-0.13-0.14c0-0.02,0-0.06-0.01-0.09c0.08,0.05,0.14,0.11,0.18,0.15c0,0,0,0.01,0,0.01l0.01,0.02l0.01-0.01
				c0,0.01,0.01,0.01,0.01,0.01c0,0,0,0,0,0c-0.02,0.01-0.04,0.02-0.05,0.03C129.4,9.61,129.4,9.61,129.39,9.62z M129.54,9.45
				c0.01-0.02,0.02-0.05,0.03-0.08l0,0c0-0.02,0.01-0.03,0.01-0.05c0.01,0.02,0.02,0.04,0.02,0.06c0.01,0.03,0.01,0.07,0.01,0.11
				c0,0.06-0.02,0.12-0.04,0.16C129.54,9.59,129.53,9.52,129.54,9.45z M129.57,9.17c0.03,0.03,0.05,0.06,0.07,0.1
				c0.02,0.04,0.02,0.08,0.02,0.11C129.6,9.34,129.57,9.25,129.57,9.17z M129.54,9.11c-0.03-0.08-0.03-0.17,0-0.25
				c0.01-0.03,0.02-0.06,0.04-0.08c0.01,0.02,0.01,0.04,0.02,0.06c0.01,0.04,0.01,0.07,0,0.11C129.59,9.02,129.57,9.07,129.54,9.11z
				 M129.49,8.86c-0.03,0.03-0.06,0.06-0.09,0.07c0.02-0.06,0.05-0.12,0.11-0.15c0.02-0.01,0.03-0.02,0.05-0.03
				c0,0.01-0.01,0.02-0.01,0.03l0,0.01C129.52,8.82,129.51,8.84,129.49,8.86z M129.49,8.02c0.01,0.01,0.02,0.02,0.03,0.03
				c0.02,0.03,0.03,0.06,0.04,0.09c0.01,0.04,0.01,0.08,0.01,0.11l0,0.01c0,0,0,0.01,0,0.01c0,0.01,0,0.02,0,0.02l0,0
				c-0.05-0.06-0.08-0.14-0.08-0.22c0-0.02,0-0.03,0-0.05c0-0.01,0-0.02,0-0.03c0,0,0,0,0,0C129.47,8.01,129.48,8.02,129.49,8.02z
				 M129.48,7.95c0.04,0.01,0.08,0.03,0.11,0.05c0.03,0.03,0.06,0.06,0.08,0.1c-0.04-0.01-0.09-0.03-0.12-0.06
				C129.52,8,129.5,7.97,129.48,7.95z M129.53,8.35c0,0.04-0.02,0.08-0.04,0.12c-0.02,0.04-0.05,0.07-0.08,0.08
				c0-0.04,0.02-0.08,0.04-0.12C129.47,8.41,129.5,8.38,129.53,8.35z M129.21,9.16c0.04,0.02,0.07,0.05,0.09,0.08
				c-0.04,0-0.08-0.01-0.11-0.03c-0.01-0.01-0.02-0.01-0.03-0.02c-0.02-0.01-0.05-0.05-0.05-0.05c-0.01-0.01-0.01-0.02-0.02-0.02
				C129.13,9.13,129.17,9.14,129.21,9.16z M129.12,9.1C129.12,9.1,129.12,9.1,129.12,9.1c0.01-0.01,0.02-0.02,0.02-0.02
				c0,0,0.01,0,0.01,0c0,0,0.01,0,0.01,0c0,0,0.01,0,0.01,0.01c0,0,0,0.01,0,0.01c0,0,0,0.01,0,0.01c0,0,0,0.01,0,0.01
				C129.16,9.11,129.14,9.11,129.12,9.1z M128.95,8.13c0.03,0.03,0.05,0.07,0.05,0.11c-0.04-0.02-0.07-0.04-0.1-0.08
				c-0.01-0.03-0.03-0.06-0.05-0.09c0-0.01-0.01-0.01-0.01-0.02C128.89,8.07,128.93,8.09,128.95,8.13z M128.92,8.41
				c0.04,0.02,0.07,0.05,0.1,0.07c0.03,0.03,0.05,0.07,0.06,0.11c-0.04-0.01-0.07-0.04-0.09-0.07
				C128.95,8.49,128.93,8.45,128.92,8.41C128.92,8.41,128.92,8.41,128.92,8.41z M129.09,8.85c0.03,0.04,0.04,0.08,0.05,0.11
				c-0.05-0.02-0.1-0.07-0.12-0.13C129.01,8.81,129,8.79,129,8.77C129.04,8.79,129.07,8.82,129.09,8.85z M129.09,9.18
				c0.01,0.02,0.03,0.03,0.05,0.04c0.02,0.02,0.04,0.05,0.06,0.08c0.03,0.05,0.04,0.11,0.04,0.16c-0.06-0.04-0.11-0.12-0.13-0.2
				c0-0.01,0-0.02-0.01-0.02C129.09,9.22,129.09,9.2,129.09,9.18C129.08,9.18,129.08,9.18,129.09,9.18
				C129.08,9.17,129.09,9.18,129.09,9.18z M129.21,9.64c-0.01,0.04-0.03,0.08-0.06,0.1c-0.01-0.04,0-0.08,0.01-0.11
				c0.01-0.04,0.03-0.08,0.06-0.11C129.23,9.56,129.22,9.6,129.21,9.64z M129.94,9.7c0.15-0.06,0.55-0.19,1.11-0.08
				c0.05,0.01,0.1,0.03,0.15,0.04C130.9,9.81,130.47,9.92,129.94,9.7z M131.49,11.37c-0.07,0.52-0.21,0.98-0.38,1.37h-1.49V12.7
				l0.1-0.21l-0.1-0.29c0.05,0.01,0.1,0.02,0.15,0.05c0.01,0.04,0.06,0.22,0.14,0.25c0.03,0.01,0.06,0.01,0.1,0.01
				c0.07,0,0.14-0.02,0.17-0.03l0.02-0.01l-0.02-0.01c0,0-0.06-0.04-0.12-0.1c-0.08-0.08-0.08-0.23-0.07-0.31c0-0.01,0-0.02,0-0.03
				c0.01-0.11,0.04-0.46-0.25-0.51c-0.06-0.01-0.13-0.01-0.19,0c-0.05,0.01-0.11,0.03-0.16,0.05c-0.04,0.02-0.08,0.04-0.12,0.07
				c-0.02,0.02-0.05,0.03-0.06,0.05c-0.02,0.02-0.03,0.05-0.03,0.08c0,0.03-0.01,0.06-0.01,0.09c0,0.02,0,0.04,0.01,0.05
				c0.02,0.03,0.04,0.02,0.06,0.02c0,0,0.01,0,0.01,0c0.01,0.04-0.01,0.21-0.04,0.35l-0.01,0.03l0.03-0.02c0,0,0.1-0.06,0.23-0.07
				l-0.1,0.29l0.1,0.21v0.04h-1.45c-0.17-0.39-0.31-0.84-0.38-1.37H131.49z M130.53,13.36c0.01,0.01,0.03,0.02,0.04,0.03
				c-0.01,0-0.03,0-0.04,0c-0.01,0-0.01,0-0.02,0c-0.09,0.01-0.18,0.06-0.23,0.13c0,0.01-0.02,0.03-0.01,0.05
				c0,0.01,0.01,0.02,0.02,0.02l0,0c0.02,0.02,0.03,0.06,0.01,0.08c-0.01,0.01-0.03,0.01-0.04,0.01c-0.01,0-0.02-0.01-0.02-0.02
				c0-0.01,0-0.01,0-0.02c0-0.02,0-0.04-0.01-0.05c-0.01-0.01-0.02-0.01-0.04-0.01c-0.03,0-0.04-0.03-0.06-0.06
				c-0.01-0.02-0.03-0.05-0.05-0.06c-0.06-0.04-0.13-0.02-0.19-0.01l-0.02,0c-0.12,0.03-0.24,0.03-0.36,0.02
				c-0.07,0-0.14-0.01-0.21-0.03c-0.02-0.01-0.04-0.01-0.06-0.02c-0.02-0.01-0.05-0.02-0.07-0.02c-0.03-0.01-0.07-0.01-0.1-0.02
				c-0.03,0-0.06-0.01-0.08-0.01c-0.11-0.02-0.21-0.09-0.3-0.15c-0.03-0.02-0.06-0.04-0.08-0.07c-0.02-0.02-0.03-0.04-0.04-0.06
				c-0.01-0.03-0.03-0.05-0.05-0.08c-0.06-0.05-0.1-0.12-0.13-0.2c0-0.01-0.01-0.01-0.01-0.02h2.7c-0.09,0.19-0.19,0.37-0.29,0.53
				c-0.1-0.1-0.19-0.06-0.25-0.02l-0.02,0.01L130.53,13.36z M129.42,12.48l0.1-0.29c0.02,0,0.05,0,0.07,0l0.1,0.29l-0.1,0.21l0,0.05
				h-0.06v-0.05L129.42,12.48z M129.86,11.81c-0.03-0.08-0.1-0.15-0.18-0.16c-0.07-0.01-0.14,0.02-0.2,0.05
				c-0.05,0.03-0.1,0.06-0.14,0.1c-0.02,0.02-0.04,0.04-0.06,0.05c-0.01,0.01-0.02,0.02-0.03,0.02c-0.01,0-0.02-0.01-0.02-0.02
				c0-0.04,0-0.07,0.01-0.11c0-0.01,0-0.02,0.01-0.03c0.01-0.01,0.02-0.02,0.03-0.03c0.11-0.1,0.26-0.16,0.41-0.16
				c0.06,0,0.12,0.01,0.17,0.04c0.07,0.05,0.11,0.13,0.12,0.21s0.01,0.17,0,0.25c0,0.08,0,0.17,0.03,0.25
				c0.03,0.07,0.08,0.13,0.15,0.17c-0.06,0.02-0.12,0.03-0.18,0.02c-0.02,0-0.04-0.01-0.06-0.02c-0.02-0.01-0.03-0.03-0.04-0.05
				c-0.03-0.05-0.04-0.1-0.06-0.15c0-0.01,0-0.02-0.01-0.03c0-0.01-0.01-0.01-0.02-0.01c-0.08-0.04-0.17-0.06-0.26-0.06
				c-0.09,0-0.18,0.03-0.26,0.07c0.02-0.11,0.03-0.22,0.03-0.32c0-0.01,0-0.01,0-0.02c0,0,0,0,0,0c0-0.01,0.01-0.01,0.01-0.02
				c0.06-0.06,0.13-0.11,0.21-0.15c0.06-0.03,0.12-0.05,0.18-0.02c0.03,0.01,0.06,0.04,0.08,0.07c0.07,0.08,0.08,0.2,0.09,0.3
				c0.01,0,0.02,0,0.03,0C129.9,11.98,129.89,11.89,129.86,11.81z M131.89,8.9c0.05-0.04,0.09-0.08,0.16-0.09
				c0.06-0.01,0.12,0.01,0.19,0.04c0.14,0.06,0.19,0.04,0.24,0.03l0.01,0c0.03-0.01,0.08-0.04,0.11-0.07l-0.05,0.14l0.19,0.02
				c-0.03,0.03-0.1,0.08-0.2,0.11c-0.15,0.04-0.26-0.01-0.36-0.06c-0.03-0.01-0.06-0.03-0.08-0.04c-0.1-0.04-0.21-0.03-0.3,0.02
				C131.83,8.96,131.86,8.93,131.89,8.9z M131.78,9.04c0.06-0.04,0.13-0.06,0.2-0.06c0.02,0.1,0.1,0.17,0.14,0.2
				c-0.03,0.03-0.11,0.08-0.28,0.09C131.82,9.25,131.75,9.15,131.78,9.04z M130.73,9.13C130.73,9.13,130.73,9.13,130.73,9.13
				c0.16,0,0.34,0.03,0.51,0.08v0c0.56,0.17,0.81,0.08,0.9,0.01c-0.02,0.11-0.08,0.38-0.23,0.47c-0.13,0.09-0.34,0.03-0.63-0.05
				c-0.07-0.02-0.13-0.04-0.21-0.06c-0.62-0.12-1.04,0.04-1.16,0.1c-0.03-0.01-0.05-0.02-0.08-0.04c-0.01,0-0.01-0.01-0.02-0.01
				c-0.02-0.01-0.04-0.02-0.06-0.04c-0.02-0.01-0.04-0.02-0.05-0.03c0,0,0,0,0,0C129.82,9.43,130.17,9.13,130.73,9.13z M130.08,9.19
				c0,0.01,0.01,0.01,0.01,0.02c0,0.01,0.01,0.02,0.01,0.02c0,0.02-0.02,0.03-0.04,0.02c-0.03-0.01-0.05-0.03-0.07-0.05
				c-0.02-0.02-0.09-0.11-0.03-0.13c0.03-0.01,0.06,0.02,0.07,0.04C130.05,9.13,130.06,9.16,130.08,9.19z M130.08,7.48
				c0.06-0.09,0.02-0.22,0-0.3l0-0.02c-0.07-0.23-0.11-0.41,0.07-0.5c0.09-0.05,0.22-0.07,0.38-0.06c0.39,0.02,0.79,0.16,1.19,0.43
				c0.46,0.31,0.89,0.64,1.3,0.99c0.06,0.05,0.12,0.11,0.19,0.16c0.16,0.13,0.33,0.27,0.47,0.43c0.04,0.04,0.08,0.09,0.09,0.14
				c-0.04-0.02-0.07-0.04-0.11-0.06c-0.03-0.02-0.05-0.04-0.08-0.05c-0.05-0.03-0.08-0.05-0.13-0.09c-0.02-0.02-0.05-0.02-0.07,0
				c-0.02,0.02-0.02,0.05-0.01,0.07c0.01,0.01,0.02,0.02,0.02,0.03c-0.01-0.01-0.02-0.01-0.03-0.02l0,0
				c-0.03-0.02-0.06-0.05-0.09-0.07c-0.02-0.02-0.05-0.04-0.08-0.06l-0.16-0.11l0.09,0.17c0.01,0.01,0.01,0.02,0.02,0.04
				c0,0,0,0,0,0c-0.05-0.04-0.11-0.06-0.16-0.09l-0.02-0.01c-0.02-0.01-0.04-0.01-0.06,0c-0.01,0.01-0.02,0.03-0.02,0.04
				c-0.04-0.02-0.08-0.05-0.12-0.08c-0.01-0.01-0.02-0.02-0.03-0.02l-0.04-0.03l-0.03,0.04c0,0,0,0.01-0.01,0.01c0,0,0,0,0,0
				c-0.04-0.01-0.07-0.04-0.1-0.07c-0.02-0.01-0.03-0.03-0.05-0.04c-0.02-0.01-0.04-0.01-0.06-0.01c-0.02,0.01-0.03,0.03-0.03,0.05
				l0,0c0,0.01,0,0.03,0,0.04c0,0,0,0,0,0c-0.06-0.02-0.12-0.06-0.18-0.11c-0.03-0.02-0.06-0.05-0.1-0.07l-0.04-0.02l-0.02,0.04
				c0,0.01-0.01,0.01-0.01,0.02c-0.07-0.03-0.14-0.08-0.21-0.12l-0.02-0.01c-0.01-0.01-0.04-0.03-0.07-0.01
				c-0.01,0.01-0.02,0.02-0.02,0.04c-0.02-0.01-0.06-0.03-0.13-0.08c-0.01-0.01-0.02-0.01-0.02-0.02c-0.03-0.02-0.05-0.02-0.07-0.01
				c0,0,0,0,0,0c0,0-0.01,0-0.02-0.01c-0.04-0.02-0.07-0.04-0.11-0.06c0,0-0.01-0.01-0.01-0.01c-0.02-0.02-0.05-0.05-0.09-0.04
				c-0.02,0-0.03,0.01-0.04,0.03c-0.02-0.01-0.04-0.01-0.05,0c-0.03,0.02-0.02,0.05-0.02,0.06c0,0.03-0.01,0.06-0.02,0.1
				c-0.01,0.01-0.01,0.02-0.01,0.02c0,0-0.01,0-0.02-0.01c0,0,0,0,0,0c-0.01-0.01-0.03-0.02-0.05-0.02c-0.01,0-0.03,0.01-0.04,0.03
				c-0.01,0.01-0.01,0.01-0.01,0.01c0,0-0.01,0-0.01-0.01l0-0.01c-0.02-0.02-0.04-0.05-0.07-0.06c0,0,0-0.01-0.01-0.01l-0.01-0.01
				c-0.01-0.02-0.03-0.03-0.05-0.02c-0.02,0-0.04,0.01-0.04,0.03l0,0c-0.01-0.01-0.02-0.02-0.04-0.02c-0.02,0-0.03,0-0.04,0.01
				c-0.03-0.02-0.06-0.02-0.09-0.01c-0.02,0-0.03,0-0.04,0c-0.02,0.01-0.03,0.04-0.03,0.04c0,0.01-0.01,0.03-0.01,0.03
				c-0.04,0.02-0.05,0.05-0.06,0.06l0,0c0,0.01-0.01,0.02-0.01,0.02c-0.01-0.01-0.03-0.01-0.04-0.01c-0.02,0-0.03,0.02-0.04,0.03
				c-0.01,0.03-0.04,0.05-0.07,0.07l0,0c0,0,0-0.01,0-0.02c0-0.01,0-0.03-0.01-0.04l-0.04-0.11l-0.05,0.12c0,0.01,0,0.01-0.01,0.02
				c-0.01,0.03-0.05,0.06-0.08,0.06c0,0-0.02,0-0.02-0.03c0,0,0,0,0-0.01c0-0.01,0-0.03-0.02-0.05l-0.04,0.03
				c-0.01-0.05-0.05-0.11-0.05-0.12c-0.01-0.02,0-0.07,0.02-0.12c0.03-0.05-0.04-0.17-0.04-0.17c0.1-0.12,0.04-0.26,0-0.35
				C130.04,7.53,130.07,7.51,130.08,7.48z M129.9,7.51c0.01,0.01,0.02,0.02,0.04,0.02c0,0,0,0,0,0c0.04,0.05,0.06,0.09,0.07,0.15
				c0.01,0.03,0.01,0.06,0,0.1c-0.01,0.02-0.02,0.05-0.04,0.06c-0.01,0.01-0.02,0.02-0.03,0.03c0,0-0.01,0-0.01,0.01
				c-0.03,0.01-0.08,0.03-0.15,0.04c0,0-0.06,0.04,0.17-0.01c0.01,0.01,0.02,0.03,0.03,0.05c0.01,0.02,0.02,0.03,0.01,0.06
				c0,0.02-0.01,0.04-0.02,0.06c-0.01,0.02-0.01,0.04-0.01,0.06c0,0.05,0.05,0.08,0.07,0.13c0.01,0.03,0,0.06-0.02,0.08
				C130.02,8.37,130,8.38,130,8.39c0,0.01,0.01,0.02,0.01,0.03c0,0.02,0,0.04,0,0.06c0,0.02-0.02,0.03-0.03,0.04
				c0,0,0.01,0.01,0.01,0.01c0.01,0.02,0,0.05,0,0.07c-0.01,0.03-0.02,0.05-0.05,0.07c0.01,0,0.01,0,0.02,0.01
				c0.03,0.03,0.05,0.06,0.07,0.1c0.02,0.04,0.03,0.09,0.03,0.13c0,0.05-0.01,0.09-0.02,0.13c0,0,0,0,0,0.01c0,0-0.01,0-0.01,0
				c-0.01,0-0.03-0.01-0.04,0c-0.05,0.01-0.05,0.05-0.05,0.1l-0.07-0.08v0c0,0-0.04,0.14-0.17,0.15c0,0,0.11,0.02,0.2-0.1
				c0.01,0.01,0.01,0.02,0.02,0.03c0.02,0.03,0.04,0.05,0.06,0.07c0.02,0.02,0.05,0.05,0.07,0.06c0,0,0.01,0,0.01,0
				c-0.18,0.1-0.3,0.21-0.37,0.28c-0.01,0-0.01-0.01-0.02-0.01c0-0.02,0-0.03,0-0.05l0,0c0-0.03,0-0.06-0.01-0.09
				c0.01,0.01,0.02,0.02,0.03,0.03l0.02,0.01l0.01-0.02c0.01-0.04,0.01-0.1-0.02-0.16l0,0c-0.02-0.05-0.06-0.1-0.1-0.13
				c0.03-0.04,0.05-0.1,0.06-0.16l0,0c0-0.02,0-0.05,0-0.07c0.03,0.04,0.08,0.08,0.13,0.09l0.02,0.01l0-0.02
				c0-0.05-0.02-0.11-0.06-0.16l0,0c-0.03-0.04-0.07-0.07-0.11-0.1c0.02-0.05,0.03-0.11,0.03-0.17l0,0c0-0.02,0-0.04-0.01-0.06
				c0.02,0.03,0.05,0.05,0.08,0.06l0.02,0.01l0-0.02c0.01-0.05-0.01-0.11-0.04-0.16l0,0c-0.03-0.05-0.07-0.09-0.11-0.11
				c0-0.04,0-0.08-0.01-0.13l0,0c0-0.01-0.01-0.03-0.01-0.04c0.04,0.02,0.08,0.04,0.12,0.04l0.02,0l-0.01-0.02
				c-0.01-0.05-0.05-0.1-0.09-0.14l0,0c-0.04-0.03-0.09-0.05-0.13-0.06c0-0.05-0.02-0.1-0.05-0.16l0,0
				c-0.04-0.06-0.09-0.12-0.15-0.15l-0.01,0c0-0.05-0.02-0.12-0.05-0.17l0,0c-0.02-0.03-0.04-0.05-0.06-0.08
				c0.01,0,0.01,0.01,0.02,0.01c0.02,0,0.06,0.05,0.08,0.07c0.01,0.01,0.02,0.01,0.03,0.01l0,0.07c0,0,0.04-0.06,0.08-0.07
				c0,0,0.1,0.04,0.11,0.14c0.01,0.05,0.01,0.11,0.02,0.16c0,0.01,0,0.02,0.01,0.03c0.01,0.01,0.02,0.01,0.03,0.01
				c0.06,0.01,0.13,0,0.18-0.03c0.03-0.02,0.05-0.04,0.06-0.07c0-0.04-0.01-0.08-0.02-0.12c-0.01-0.02-0.02-0.05-0.03-0.07
				c-0.01-0.01-0.01-0.02-0.02-0.03c-0.01-0.01-0.02-0.02-0.03-0.03c0,0,0-0.01-0.01-0.01C129.7,7.42,129.83,7.42,129.9,7.51z
				 M129.6,8.75c0.04,0.02,0.07,0.05,0.09,0.08c0.03,0.04,0.04,0.08,0.05,0.11c-0.05-0.03-0.1-0.07-0.12-0.13
				C129.61,8.79,129.61,8.77,129.6,8.75z M129.5,7.26l0,0.01c0,0.01,0,0.02,0,0.03c-0.01,0.03,0.01,0.05,0.03,0.07
				c0,0,0.01,0.01,0.01,0.01c0,0,0,0,0.01,0c0.05,0.04,0.09,0.08,0.13,0.14c0.02,0.04,0.05,0.08,0.06,0.13
				c0.01,0.04-0.02,0.07-0.05,0.08c-0.04,0.02-0.09,0.03-0.14,0.02c0,0-0.01,0-0.01-0.01c-0.01-0.01-0.01-0.02-0.01-0.02
				c0-0.02,0-0.04,0-0.06c0,0,0-0.03,0-0.03c0,0,0-0.01,0-0.01l0,0c0-0.09-0.04-0.16-0.13-0.22c-0.01-0.01-0.04-0.02-0.06-0.01
				c-0.01,0-0.01,0-0.02,0c0,0-0.01,0-0.01,0c-0.01,0-0.02,0-0.03-0.01c-0.06-0.05-0.12-0.08-0.19-0.1c0,0,0,0,0,0
				c0.01-0.03,0.01-0.06,0-0.1c0.01-0.01,0.02-0.01,0.03-0.01c0.01-0.01,0.02-0.02,0.03-0.02c0.02-0.01,0.03-0.03,0.05-0.03
				c0.01,0,0.02,0,0.03,0c0.01,0,0.01,0,0.02,0c0.02,0,0.04,0,0.06,0c0.01,0,0.02-0.01,0.03-0.01c0.01,0,0.02,0.01,0.02,0.02
				c0.01,0,0.02,0.01,0.03,0.01c0.02,0,0.03,0,0.04-0.01c0,0,0.01,0,0.01,0C129.48,7.16,129.5,7.2,129.5,7.26z M129.25,7.04
				c0.04,0.02,0.08,0,0.08,0l0.01,0c0.02-0.01,0.04-0.02,0.06-0.02c0.02,0,0.03,0,0.04,0.01c0.01,0.01,0.01,0.02,0.02,0.02
				c0,0,0.01,0.02,0,0.03c0,0-0.01,0.01-0.01,0.01c-0.02,0.01-0.04,0.02-0.06,0.01c-0.02-0.01-0.03-0.02-0.04-0.03
				c-0.02,0-0.03,0.01-0.04,0.02c-0.02,0.01-0.05,0-0.08-0.01c-0.05-0.01-0.09,0.02-0.12,0.06c-0.01,0.01-0.03,0.03-0.05,0.02
				c-0.01,0-0.01-0.01-0.02-0.01c-0.01-0.01-0.02-0.01-0.03-0.01c-0.02,0-0.04,0-0.06-0.01c-0.03-0.01-0.03-0.05-0.01-0.07
				c0.02-0.03,0.08-0.01,0.11,0.01c0.01,0,0.01,0.01,0.02,0.01c0.01,0,0.01,0,0.02-0.01l0.01-0.01
				C129.17,6.95,129.21,7.02,129.25,7.04z M128.68,8.21c-0.01,0-0.02,0.01-0.03,0.03c0,0-0.01-0.01-0.01-0.02l0-0.01
				c-0.01-0.02-0.02-0.05-0.06-0.06c0,0-0.01-0.02-0.01-0.03c0-0.01-0.01-0.03-0.03-0.04c-0.01,0-0.02-0.01-0.04,0
				c-0.03-0.01-0.06-0.01-0.09,0.01c-0.01-0.01-0.02-0.01-0.04-0.01c-0.02,0-0.03,0.01-0.04,0.02l0,0
				c-0.01-0.02-0.02-0.03-0.04-0.03c-0.02,0-0.04,0.01-0.05,0.02l-0.01,0.01c0,0,0,0.01-0.01,0.01c-0.04,0.01-0.06,0.04-0.07,0.06
				l0,0.01c-0.01,0.01-0.01,0.01-0.01,0.01c0,0-0.01,0-0.02-0.02c0-0.01-0.02-0.02-0.04-0.03c-0.01,0-0.03,0-0.04,0.02
				c-0.01,0.01-0.02,0.02-0.02,0.02c-0.01-0.01-0.04-0.06-0.03-0.11c0-0.01,0-0.04-0.02-0.06c-0.02-0.01-0.03-0.01-0.05,0
				c-0.01-0.02-0.02-0.03-0.04-0.03c-0.04-0.01-0.07,0.02-0.09,0.04c0,0-0.01,0.01-0.01,0.01l-0.02,0.01
				c-0.04,0.02-0.07,0.05-0.11,0.06c0,0,0,0,0,0c-0.02-0.01-0.04-0.01-0.07,0.01c-0.01,0-0.02,0.01-0.03,0.02
				c-0.04,0.03-0.07,0.05-0.1,0.06c-0.01,0.01-0.02,0-0.03-0.01c0-0.01-0.01-0.02-0.02-0.02c-0.03-0.02-0.06,0-0.07,0.01l-0.01,0.01
				c-0.07,0.05-0.13,0.09-0.21,0.12c0-0.01,0-0.01-0.01-0.02l-0.02-0.04l-0.04,0.02c-0.03,0.02-0.07,0.04-0.1,0.07
				c-0.06,0.04-0.11,0.08-0.18,0.11c0,0,0,0,0,0c0-0.01,0-0.03,0-0.04l0,0c0-0.02-0.01-0.04-0.03-0.05c-0.02-0.01-0.04-0.01-0.06,0
				c-0.02,0.01-0.04,0.03-0.05,0.04c-0.03,0.03-0.06,0.05-0.1,0.07c0,0,0,0,0-0.01c0-0.01-0.01-0.02-0.01-0.03
				c-0.01-0.01-0.02-0.02-0.03-0.01c-0.01,0.01-0.02,0.01-0.02,0.02c-0.02,0.01-0.04,0.03-0.05,0.04c-0.03,0.03-0.06,0.05-0.1,0.07
				c0-0.02-0.01-0.03-0.02-0.04c-0.02-0.01-0.04-0.01-0.06,0l-0.02,0.01c-0.05,0.02-0.11,0.05-0.16,0.09c0,0,0,0,0,0
				c0-0.01,0.01-0.02,0.02-0.04c0,0,0,0,0,0c0.01-0.02,0.01-0.04,0.02-0.06c0.01-0.03-0.03-0.03-0.05-0.02l-0.04,0.02c0,0,0,0,0,0
				c-0.01,0.01-0.02,0.02-0.04,0.03c-0.08,0.06-0.13,0.11-0.16,0.12c0-0.01,0.01-0.02,0.02-0.03c0.01-0.02,0.01-0.05-0.01-0.07
				c-0.02-0.02-0.05-0.02-0.07,0c-0.06,0.05-0.11,0.09-0.18,0.12c-0.03,0.02-0.06,0.04-0.09,0.06c-0.01,0.01-0.03,0.02-0.05,0.03
				c0.02-0.05,0.05-0.09,0.1-0.14c0.14-0.15,0.3-0.29,0.47-0.43c0.06-0.05,0.13-0.11,0.19-0.16c0.41-0.36,0.84-0.68,1.3-0.99
				c0.4-0.27,0.8-0.41,1.19-0.43c0.13-0.01,0.35,0,0.45,0.12c0.05,0.06,0.07,0.16,0.05,0.26c-0.05-0.01-0.09,0.06-0.09,0.06
				c-0.02-0.01-0.05-0.02-0.08-0.02c-0.05,0.01-0.07,0.05-0.06,0.1l0,0c0,0.01,0,0.01,0.01,0.02c0,0,0,0-0.01,0.01c0,0,0,0-0.01,0
				c0,0-0.01,0-0.01,0.01c-0.01,0.01-0.01,0.01-0.02,0.01c-0.01,0.01-0.02,0.02-0.03,0.03c-0.05,0.05-0.06,0.11-0.04,0.18
				c0,0,0,0.01,0,0.01c0.02,0.06,0.01-0.04,0.07-0.07c0.05-0.02,0.09-0.03,0.13-0.02c-0.02,0.02-0.04,0.03-0.06,0.06
				c-0.06,0.07-0.09,0.16-0.09,0.25c0,0-0.01,0-0.01,0l0,0v0c-0.08,0.02-0.14,0.09-0.16,0.17l0,0.02l0.02,0
				c0.03,0,0.07-0.02,0.09-0.03c-0.02,0.08-0.02,0.17,0.01,0.25C128.73,8.07,128.7,8.14,128.68,8.21z M128.78,8.17
				c0,0.01-0.01,0.02-0.01,0.03c-0.01,0.04-0.03,0.07-0.05,0.09c0,0-0.01,0-0.01,0c-0.01-0.08,0.02-0.16,0.08-0.22
				c-0.01,0.03-0.01,0.06-0.01,0.09C128.78,8.16,128.78,8.16,128.78,8.17z M128.78,7.73c-0.02,0.02-0.04,0.03-0.06,0.04
				c0.02-0.05,0.06-0.09,0.11-0.11c0,0,0,0,0,0c-0.01,0.01-0.01,0.02-0.02,0.04C128.8,7.71,128.79,7.72,128.78,7.73z M128.81,7.77
				c0.01-0.02,0.01-0.04,0.02-0.07c0-0.01,0.01-0.01,0.01-0.02c0,0,0,0.01,0,0.01c0,0.01,0.01,0.03,0.01,0.04
				c0.01,0.04,0.01,0.08,0.01,0.12c0,0.05-0.02,0.1-0.04,0.14l-0.01,0.01l0,0C128.79,7.94,128.79,7.85,128.81,7.77z M128.81,8.17
				c0.01-0.03,0.01-0.07,0.01-0.1l0,0c0,0,0.01,0.01,0.01,0.01c0.01,0.01,0.01,0.03,0.02,0.04c0.01,0.02,0.02,0.03,0.03,0.05
				c0.01,0.02,0.01,0.03,0.01,0.05c0.01,0.05,0.01,0.1,0,0.15l-0.02,0C128.84,8.31,128.82,8.24,128.81,8.17z M128.85,8.42
				c-0.01,0.03-0.01,0.06-0.01,0.08c0,0.01-0.01,0.03-0.01,0.04c-0.02,0.04-0.04,0.08-0.07,0.1C128.75,8.57,128.79,8.48,128.85,8.42
				C128.85,8.42,128.85,8.42,128.85,8.42z M128.92,8.93c-0.01,0.04-0.03,0.08-0.06,0.1c-0.01-0.08,0.01-0.17,0.07-0.23
				C128.93,8.84,128.92,8.89,128.92,8.93z M128.95,8.76C128.95,8.75,128.95,8.75,128.95,8.76l-0.01-0.01l0,0
				c-0.04-0.06-0.07-0.13-0.07-0.21c0,0,0-0.01,0-0.01c0.01-0.02,0.01-0.05,0.01-0.08c0.03,0.04,0.06,0.1,0.07,0.15
				C128.96,8.65,128.96,8.71,128.95,8.76z M128.99,9.05c-0.03-0.06-0.04-0.14-0.02-0.22c0.04,0.04,0.06,0.1,0.08,0.15
				c0.01,0.04,0.01,0.08,0.01,0.12l0,0.01l0,0.02c0,0,0,0,0,0c0,0.01,0,0.01,0,0.02C129.03,9.12,129.01,9.09,128.99,9.05z
				 M129.02,9.25c0.01-0.02,0.02-0.04,0.03-0.06c0,0.02,0,0.03,0.01,0.05c0,0.03,0,0.05,0,0.08c-0.01,0.04-0.03,0.08-0.05,0.11
				C128.99,9.38,129,9.31,129.02,9.25z M127.05,8.98C127.02,8.98,127,9,126.97,9.01c-0.1,0.05-0.21,0.1-0.36,0.06
				c-0.11-0.04-0.17-0.08-0.2-0.11l0.19-0.02l-0.05-0.14c0.03,0.02,0.08,0.05,0.11,0.07l0.01,0c0.05,0.01,0.1,0.03,0.24-0.03
				c0.08-0.03,0.14-0.04,0.19-0.04c0.07,0.01,0.11,0.05,0.16,0.09c0.03,0.03,0.06,0.06,0.09,0.09
				C127.26,8.94,127.15,8.94,127.05,8.98z M127.18,8.98c0.07,0,0.14,0.02,0.2,0.06c0.03,0.11-0.04,0.21-0.06,0.23
				c-0.17-0.01-0.25-0.06-0.28-0.09C127.08,9.16,127.16,9.08,127.18,8.98z M127.25,9.69c-0.15-0.09-0.21-0.36-0.23-0.47
				c0.08,0.07,0.33,0.16,0.9-0.01l0,0c0.17-0.05,0.34-0.08,0.51-0.08c0,0,0,0,0,0c0.22,0,0.4,0.05,0.56,0.11
				c-0.03,0.08-0.03,0.16-0.01,0.23l0.01,0.02l0.02-0.02c0.03-0.03,0.06-0.08,0.07-0.15c0.03,0.06,0.07,0.12,0.12,0.15
				c-0.03,0.03-0.06,0.08-0.07,0.13c0,0.01,0,0.01,0,0.02c-0.2-0.07-0.56-0.14-1.04-0.05c-0.07,0.02-0.13,0.04-0.19,0.05
				c0,0,0,0,0,0l0,0c0,0-0.01,0-0.02,0C127.6,9.72,127.39,9.78,127.25,9.69z M127.48,10.22c-0.01,0.28,0,0.56,0.02,0.82l-0.22-0.15
				c-0.04-0.27-0.07-0.55-0.08-0.86L127.48,10.22z M127.51,11.15c0.07,0.73,0.26,1.39,0.57,1.97c0.13,0.24,0.27,0.46,0.44,0.66
				c-0.03,0.04-0.08,0.09-0.14,0.15c-0.09-0.09-0.18-0.19-0.26-0.29c-0.16-0.19-0.3-0.4-0.42-0.61c-0.12-0.22-0.22-0.45-0.3-0.69
				c-0.15-0.46-0.22-0.94-0.24-1.42L127.51,11.15z M126.22,9.39l0.6,0.39c0.01,0.31,0.02,0.59,0.05,0.84l-0.68-0.44
				C126.19,9.93,126.2,9.66,126.22,9.39z M126.76,14.1c0,0-0.29-0.29-0.53-0.92c-0.22-0.58-0.43-1.57-0.25-3.03l0.71,0.47
				c0,0.09,0,0.17,0.01,0.26c0.02,0.5,0.08,1,0.24,1.47c0.08,0.24,0.18,0.47,0.3,0.69c0.12,0.22,0.26,0.42,0.42,0.61
				c0.14,0.18,0.3,0.34,0.47,0.49c-0.31,0.2-0.76,0.35-1.3,0.04C126.79,14.14,126.77,14.11,126.76,14.1z M126.92,14.26
				c0.19,0.09,0.36,0.12,0.52,0.12c0.56,0,0.96-0.42,1.09-0.58c0.16,0.19,0.33,0.36,0.5,0.51C128.03,15,127.25,14.54,126.92,14.26z
				 M128.68,15.3c0.07-0.11,0.34-0.54,0.45-0.91c0.07,0.05,0.14,0.1,0.21,0.14l-0.11,0.86C129.16,15.36,128.99,15.29,128.68,15.3z
				 M129.03,15.36c0.11,0.02,0.17,0.05,0.19,0.06c0,0,0,0.01-0.01,0.01c-0.01,0.01-0.04,0.03-0.12,0.04c-0.04,0-0.07,0.02-0.1,0.03
				L129.03,15.36z M129.31,15.82c-0.01,0.01-0.02,0.02-0.02,0.03l-0.01-0.15c0.02,0,0.03,0.01,0.03,0.02
				c0.02,0.02,0.03,0.04,0.03,0.04l0,0C129.34,15.76,129.34,15.79,129.31,15.82z M129.34,15.7c-0.04-0.03-0.09-0.04-0.15-0.04
				c-0.05,0-0.1,0.02-0.15,0.01c-0.02,0-0.04-0.01-0.05-0.02c-0.02-0.02-0.02-0.06,0-0.09s0.05-0.04,0.08-0.04
				c0.03-0.01,0.06-0.01,0.1-0.02c0.03-0.01,0.06-0.03,0.07-0.06c0.01-0.01,0.01-0.03,0.01-0.04l0.05-0.36
				c0.01-0.06,0.02-0.12,0.02-0.18l0.02-0.18c0-0.03,0.01-0.06,0.01-0.09c0-0.01,0-0.02,0-0.02c0,0,0-0.01,0-0.01c0,0,0,0,0.01,0
				c0.01,0.01,0.03,0.02,0.04,0.02c0.01,0,0.01,0.01,0.02,0.01C129.4,14.96,129.37,15.33,129.34,15.7z M129.87,15.84
				c-0.01-0.01-0.01-0.02-0.02-0.03c-0.03-0.02-0.03-0.04-0.03-0.06l0-0.01c0,0,0-0.02,0.03-0.04c0.01-0.01,0.02-0.01,0.03-0.02
				L129.87,15.84z M130.17,15.64C130.17,15.64,130.17,15.64,130.17,15.64c-0.02,0.03-0.05,0.03-0.08,0.03
				c-0.05,0-0.1-0.01-0.14-0.01c-0.05,0-0.1,0-0.14,0.03c-0.03-0.35-0.06-0.71-0.08-1.06c0-0.01,0-0.03,0-0.04
				c0.01-0.02,0.04-0.03,0.06-0.04c0.03,0.27,0.06,0.53,0.1,0.8c0.01,0.05,0.01,0.09,0.05,0.13c0.04,0.04,0.1,0.03,0.15,0.04
				C130.14,15.53,130.21,15.58,130.17,15.64z M130.16,15.51c-0.02-0.02-0.05-0.03-0.1-0.03c-0.08-0.01-0.11-0.03-0.12-0.04
				c0-0.01-0.01-0.01-0.01-0.01c0.02-0.01,0.08-0.04,0.19-0.06L130.16,15.51z M130.48,15.3c-0.32-0.01-0.49,0.06-0.55,0.09
				l-0.11-0.86c0.07-0.04,0.14-0.09,0.21-0.14C130.14,14.75,130.41,15.19,130.48,15.3z M129.58,14.51
				c-0.18-0.09-0.39-0.23-0.61-0.43c0.01-0.02,0.01-0.04,0.01-0.07c0-0.03,0-0.06,0.02-0.08c0,0,0.01,0,0.01-0.01
				c0.01,0,0.02-0.01,0.02-0.01c0.01-0.01,0.01-0.02,0.02-0.02c0-0.01,0.01-0.01,0.01-0.01c0.01-0.01,0.03-0.01,0.05-0.01
				c0.02,0,0.05-0.01,0.07-0.03c0.02-0.02,0.03-0.05,0.02-0.07c0,0,0-0.01-0.01-0.01c0,0,0-0.01,0-0.01c0-0.01,0-0.02,0.01-0.03
				c0.02-0.02,0.06-0.04,0.09-0.04c0.01,0,0.02,0,0.04,0c0.03,0,0.07,0.01,0.1-0.01c0.01-0.01,0.02-0.02,0.03-0.03
				c0.01-0.01,0.02-0.02,0.03-0.03c0.01,0,0.01,0,0.02,0c0.02,0,0.04,0,0.05-0.02l0,0c0-0.01,0.01-0.01,0.02-0.01l0.19,0.01
				c0.01,0,0.02,0,0.03,0.01c0.01,0,0.01,0.01,0.02,0.02c0.01,0.01,0.01,0.02,0.02,0.02c0.02,0.01,0.05,0.02,0.08,0
				c0.01,0,0.02-0.01,0.02-0.01c0.01-0.01,0.02-0.01,0.04-0.02c0.02-0.01,0.06,0.01,0.08,0.03c0.01,0.01,0.01,0.03,0,0.04
				c0,0,0,0-0.01,0.01c-0.01,0.01-0.02,0.01-0.02,0.03c-0.01,0.02,0.01,0.04,0.03,0.05l0.01,0c0.01,0,0.02,0.01,0.02,0.01
				c0.01,0.02,0,0.04-0.02,0.07c-0.01,0.02-0.03,0.04-0.03,0.06l0,0l0,0c0,0.02,0.03,0.03,0.04,0.04c0.02,0.01,0.05,0.02,0.06,0.05
				c0,0,0,0.01,0,0.01c0,0.01,0,0.02,0.01,0.03c0,0.01,0.01,0.01,0.01,0.02c0,0,0,0.01,0.01,0.01c0,0.02,0.01,0.03,0.02,0.04
				C129.95,14.29,129.75,14.43,129.58,14.51z M130.12,14.32c0.17-0.14,0.34-0.3,0.5-0.51c0.13,0.15,0.53,0.58,1.09,0.58
				c0.16,0,0.34-0.04,0.52-0.12C131.9,14.55,131.12,15,130.12,14.32z M132.93,13.18c-0.24,0.63-0.52,0.91-0.53,0.92
				c-0.01,0.01-0.04,0.04-0.08,0.08c-0.53,0.31-0.99,0.16-1.3-0.04c0.17-0.15,0.33-0.31,0.47-0.49c0.16-0.19,0.3-0.4,0.42-0.61
				c0.12-0.22,0.22-0.45,0.3-0.69c0.15-0.47,0.22-0.97,0.24-1.47c0-0.09,0.01-0.18,0.01-0.27l0.71-0.46
				C133.36,11.61,133.15,12.6,132.93,13.18z M133.5,10.07l-0.21-0.05l0.04-0.21l0.42-0.09L133.5,10.07z"/>
			<path class="st0" d="M130.84,9.37c0.02,0,0.05,0,0.07,0.01c0.01,0,0.02,0,0.03,0.01c0.01,0.01,0.01,0.02,0.01,0.03
				c0,0.01,0,0.02,0,0.03c0,0.01,0,0.01,0,0.02l0,0.01c0.01,0,0.02,0,0.04,0l0,0c0,0-0.01-0.01-0.01-0.01c0,0,0-0.01,0-0.02
				c0-0.01,0-0.02,0-0.03c0-0.01,0-0.02,0-0.03c0-0.01-0.01-0.01-0.02-0.01c0.01,0,0.02-0.01,0.03-0.02
				c0.01-0.01,0.01-0.02,0.01-0.03c0-0.02-0.01-0.04-0.03-0.05c-0.01-0.01-0.03-0.01-0.04-0.01c-0.04,0-0.07-0.01-0.11-0.01
				c-0.01,0.07-0.01,0.14-0.01,0.21c0.01,0,0.02,0,0.03,0C130.83,9.43,130.83,9.4,130.84,9.37z M130.84,9.28
				c0.03,0,0.05,0,0.08,0.01c0.01,0,0.02,0,0.03,0.01c0.01,0.01,0.02,0.02,0.01,0.03c0,0.01-0.01,0.02-0.02,0.03
				c-0.01,0-0.02,0.01-0.04,0c-0.02,0-0.05,0-0.07-0.01C130.84,9.33,130.84,9.3,130.84,9.28z"/>
			<path class="st0" d="M131.19,9.46c0.01-0.02,0.02-0.03,0.03-0.06c0.01-0.03,0-0.05-0.01-0.07c-0.01-0.02-0.04-0.04-0.07-0.04
				c-0.03-0.01-0.06-0.01-0.09-0.01c-0.01,0.07-0.02,0.14-0.03,0.21c0.03,0,0.06,0.01,0.09,0.01C131.14,9.5,131.17,9.49,131.19,9.46
				z M131.05,9.46c0.01-0.05,0.02-0.11,0.03-0.16c0.02,0,0.04,0.01,0.05,0.01c0.02,0,0.04,0.01,0.05,0.03
				c0.01,0.02,0.01,0.04,0,0.06c0,0.01,0,0.01-0.01,0.02c-0.01,0.01-0.01,0.02-0.02,0.03c-0.01,0.01-0.02,0.01-0.03,0.02
				c-0.01,0-0.02,0-0.03,0C131.08,9.47,131.07,9.46,131.05,9.46z"/>
			<path class="st0" d="M131.39,9.53c-0.04-0.01-0.08-0.02-0.13-0.03c0.01-0.02,0.01-0.05,0.02-0.07c0.04,0.01,0.08,0.02,0.12,0.03
				c0-0.01,0-0.02,0.01-0.02c-0.04-0.01-0.08-0.02-0.12-0.03c0.01-0.02,0.01-0.04,0.02-0.06c0.04,0.01,0.09,0.02,0.13,0.03
				c0-0.01,0-0.02,0.01-0.02c-0.05-0.02-0.11-0.03-0.16-0.04c-0.02,0.07-0.03,0.14-0.05,0.2c0.05,0.01,0.1,0.02,0.15,0.04
				C131.39,9.55,131.39,9.54,131.39,9.53z"/>
			<path class="st0" d="M131.45,9.58c0.02-0.05,0.03-0.11,0.05-0.16c0.02,0.07,0.04,0.13,0.05,0.2c0.01,0,0.02,0.01,0.03,0.01
				c0.02-0.06,0.05-0.13,0.08-0.19c-0.01,0-0.02-0.01-0.03-0.01c-0.02,0.05-0.04,0.11-0.06,0.16c-0.01-0.07-0.03-0.13-0.05-0.2
				c-0.01,0-0.02-0.01-0.04-0.01c-0.02,0.07-0.04,0.13-0.06,0.2C131.43,9.57,131.44,9.57,131.45,9.58z"/>
			<path class="st0" d="M130.34,9.47c0.01,0,0.02,0,0.03,0c0-0.03-0.01-0.06-0.01-0.08c0.02-0.04,0.05-0.09,0.08-0.13
				c-0.01,0-0.03,0-0.04,0c-0.02,0.04-0.04,0.07-0.06,0.11c-0.03-0.03-0.05-0.06-0.08-0.09c-0.01,0-0.02,0-0.04,0.01
				c0.04,0.04,0.07,0.07,0.1,0.11C130.33,9.42,130.34,9.45,130.34,9.47z"/>
			<path class="st0" d="M130.65,9.46c0.04,0,0.06-0.01,0.08-0.03c0.02-0.02,0.03-0.05,0.03-0.08c0-0.03,0-0.05-0.02-0.07
				c-0.02-0.02-0.05-0.04-0.09-0.04c-0.04,0-0.07,0.01-0.09,0.04c-0.02,0.02-0.02,0.05-0.02,0.07c0,0.03,0.01,0.06,0.03,0.08
				C130.59,9.45,130.62,9.46,130.65,9.46z M130.6,9.29c0.02-0.01,0.04-0.02,0.06-0.02c0.03,0,0.04,0.01,0.06,0.02
				c0.01,0.02,0.02,0.04,0.02,0.06c0,0.02-0.01,0.04-0.02,0.06c-0.01,0.02-0.03,0.03-0.06,0.03c-0.03,0-0.05-0.01-0.06-0.02
				c-0.01-0.02-0.02-0.03-0.02-0.06C130.58,9.33,130.58,9.3,130.6,9.29z"/>
			<path class="st0" d="M127.41,9.63c-0.02-0.06-0.04-0.12-0.07-0.18c-0.01,0-0.02,0.01-0.03,0.01c0.03,0.07,0.05,0.13,0.08,0.2
				c0.04-0.02,0.09-0.03,0.14-0.04c0-0.01-0.01-0.02-0.01-0.02C127.48,9.6,127.44,9.62,127.41,9.63z"/>
			<path class="st0" d="M127.5,9.41c0.02,0.07,0.04,0.14,0.07,0.21c0.01,0,0.02-0.01,0.03-0.01c-0.02-0.07-0.04-0.14-0.06-0.21
				C127.52,9.4,127.51,9.4,127.5,9.41z"/>
			<path class="st0" d="M127.77,9.45c-0.01,0-0.02-0.01-0.03-0.01c0.01-0.01,0.01-0.01,0.02-0.02c0.01-0.01,0.01-0.02,0-0.04
				c0-0.01-0.01-0.02-0.02-0.03c-0.02-0.01-0.04-0.02-0.06-0.01c-0.03,0.01-0.07,0.02-0.1,0.02c0.02,0.07,0.04,0.14,0.06,0.21
				c0.03-0.01,0.06-0.02,0.09-0.02c0.03-0.01,0.05-0.02,0.06-0.04c0.01-0.01,0.01-0.03,0.01-0.04
				C127.79,9.47,127.78,9.46,127.77,9.45z M127.63,9.46c-0.01-0.02-0.01-0.04-0.02-0.06c0.02,0,0.04-0.01,0.06-0.01
				c0.01,0,0.02,0,0.03,0c0.01,0,0.02,0.01,0.03,0.02c0,0.01,0,0.02-0.01,0.03c-0.01,0.01-0.02,0.01-0.03,0.01
				C127.67,9.45,127.65,9.45,127.63,9.46z M127.76,9.51c-0.01,0.01-0.02,0.02-0.04,0.02c-0.02,0.01-0.04,0.01-0.06,0.02
				c-0.01-0.02-0.01-0.05-0.02-0.07c0.02-0.01,0.04-0.01,0.06-0.01c0.01,0,0.02,0,0.03,0c0.02,0,0.03,0.01,0.03,0.03
				C127.76,9.5,127.76,9.51,127.76,9.51z"/>
			<path class="st0" d="M128,9.47c-0.05,0.01-0.09,0.01-0.14,0.02c0-0.02-0.01-0.05-0.01-0.07c0.04-0.01,0.08-0.01,0.13-0.02
				c0-0.01,0-0.02,0-0.02c-0.04,0.01-0.09,0.01-0.13,0.02c0-0.02-0.01-0.04-0.01-0.06c0.05-0.01,0.09-0.02,0.14-0.02
				c0-0.01,0-0.02,0-0.03c-0.06,0.01-0.12,0.02-0.17,0.03c0.02,0.07,0.03,0.14,0.05,0.21c0.05-0.01,0.11-0.02,0.16-0.03
				C128.01,9.49,128,9.48,128,9.47z"/>
			<path class="st0" d="M128.09,9.48c0-0.03-0.01-0.06-0.01-0.09c0.02,0,0.05,0,0.07-0.01c0.01,0,0.02,0,0.03,0
				c0.01,0,0.02,0.01,0.02,0.03c0,0.01,0,0.02,0.01,0.04c0,0.01,0,0.01,0,0.02l0,0.01c0.01,0,0.03,0,0.04,0l0,0
				c-0.01,0-0.01-0.01-0.01-0.01c0,0,0-0.01,0-0.02c0-0.01,0-0.02,0-0.03c0-0.01,0-0.02-0.01-0.03c-0.01-0.01-0.01-0.01-0.02-0.01
				c0.01-0.01,0.02-0.01,0.02-0.02c0.01-0.01,0.01-0.02,0.01-0.03c0-0.02-0.01-0.04-0.04-0.05c-0.01,0-0.03-0.01-0.05,0
				c-0.04,0-0.08,0.01-0.11,0.01c0.01,0.07,0.02,0.14,0.03,0.21C128.07,9.49,128.08,9.49,128.09,9.48z M128.15,9.29
				c0.01,0,0.02,0,0.03,0c0.01,0,0.02,0.01,0.02,0.03c0,0.01,0,0.02-0.01,0.03c-0.01,0.01-0.02,0.01-0.03,0.01
				c-0.02,0-0.05,0-0.07,0.01c0-0.02-0.01-0.05-0.01-0.07C128.1,9.29,128.12,9.29,128.15,9.29z"/>
			<path class="st0" d="M128.32,9.28c0,0.06,0.01,0.13,0.01,0.19c0.01,0,0.02,0,0.03,0c0-0.06,0-0.13-0.01-0.19
				c0.03,0,0.06,0,0.08,0c0-0.01,0-0.02,0-0.03c-0.07,0-0.13,0-0.2,0c0,0.01,0,0.02,0,0.03C128.27,9.28,128.3,9.28,128.32,9.28z"/>
			<path class="st0" d="M128.46,9.47c0.01-0.02,0.02-0.04,0.03-0.06c0.03,0,0.06,0,0.09,0c0.01,0.02,0.01,0.04,0.02,0.07
				c0.01,0,0.02,0,0.03,0c-0.02-0.07-0.05-0.15-0.08-0.22c-0.01,0-0.03,0-0.04,0c-0.03,0.07-0.06,0.14-0.09,0.21
				C128.43,9.47,128.44,9.47,128.46,9.47z M128.53,9.28c0.01,0.03,0.02,0.06,0.03,0.1c-0.02,0-0.05,0-0.07,0
				C128.5,9.35,128.52,9.32,128.53,9.28z"/>
			<path class="st0" d="M128.85,9.45c0.01-0.02,0.02-0.04,0.02-0.06c0-0.03,0-0.05-0.02-0.08c-0.02-0.02-0.04-0.04-0.08-0.04
				c-0.03,0-0.07-0.01-0.1-0.01c0,0.07-0.01,0.14-0.01,0.22c0.03,0,0.06,0.01,0.09,0.01C128.8,9.49,128.83,9.48,128.85,9.45z
				 M128.69,9.46c0-0.06,0.01-0.11,0.01-0.17c0.02,0,0.04,0,0.06,0.01c0.03,0,0.05,0.01,0.06,0.03c0.01,0.02,0.01,0.04,0.01,0.06
				c0,0.01,0,0.01,0,0.02c0,0.01-0.01,0.02-0.02,0.03c-0.01,0.01-0.02,0.02-0.03,0.02c-0.01,0-0.02,0-0.03,0
				C128.73,9.46,128.71,9.46,128.69,9.46z"/>
			<path class="st0" d="M129.82,13.22L129.82,13.22l0-0.02h-0.03v-0.05h0.06v-0.12v-0.02l0,0l-0.04,0l-0.01,0l0-0.04
				c0-0.01,0-0.02-0.01-0.03c-0.01-0.01-0.02-0.01-0.03,0c-0.01,0.01-0.01,0.01-0.01,0.03v0.04h-0.05c-0.02,0-0.02,0-0.04,0l-0.01,0
				v-0.04c0-0.01-0.01-0.02-0.01-0.03c-0.01-0.01-0.02-0.01-0.03,0c-0.01,0.01-0.01,0.02-0.01,0.03v0.04l-0.01,0
				c-0.02,0-0.04,0-0.04,0h-0.05v-0.04c0-0.01-0.01-0.02-0.01-0.03c-0.01-0.01-0.02-0.01-0.03,0c-0.01,0.01-0.01,0.02-0.01,0.03
				v0.04h-0.06v0.14h0.06v0.05h-0.04v0.02l0,0l-0.04-0.05h-0.15l0.07,0.1l0.08,0.05l0.26,0v0l0,0l0,0v0l0.26,0l0.08-0.05l0.07-0.1
				h-0.15L129.82,13.22z M129.71,13.04h0.05c0.01,0,0.02,0,0.04,0l0.01,0v0.07h-0.06h-0.04V13.04z M129.72,13.15v0.05h-0.04v0.02
				l-0.04,0V13.2h-0.02v-0.05H129.72z M129.55,13.04l0.01,0c0.02,0,0.03-0.01,0.04-0.01c0.01,0,0.02,0.01,0.04,0.01l0.01,0v0.07
				h-0.05h-0.05V13.04z M129.57,13.15v0.05h-0.03v0.02l-0.04,0V13.2h-0.03v-0.05H129.57z M129.39,13.11v-0.07h0.1v0.07h-0.05H129.39
				z M129.94,13.2l-0.03,0.04l-0.07,0.04l-0.25,0l-0.25,0l-0.07-0.04l-0.03-0.04h0.07l0.04,0.05l0.05,0v-0.02h0.06v0.02l0.1,0v-0.02
				h0.02h0h0.02v0.02l0.1,0v-0.02h0.06v0.02l0.05,0l0.04-0.05H129.94z"/>
			<path class="st0" d="M129.82,14.15L129.82,14.15l0-0.02h-0.03v-0.05h0.06v-0.12v-0.02l0,0l-0.04,0l-0.01,0l0-0.04
				c0-0.01,0-0.02-0.01-0.03c-0.01-0.01-0.02-0.01-0.03,0c-0.01,0.01-0.01,0.01-0.01,0.03v0.04h-0.05c-0.02,0-0.02,0-0.04,0l-0.01,0
				V13.9c0-0.01-0.01-0.02-0.01-0.03c-0.01-0.01-0.02-0.01-0.03,0c-0.01,0.01-0.01,0.02-0.01,0.03v0.04l-0.01,0
				c-0.02,0-0.04,0-0.04,0h-0.05V13.9c0-0.01-0.01-0.02-0.01-0.03c-0.01-0.01-0.02-0.01-0.03,0c-0.01,0.01-0.01,0.02-0.01,0.03v0.04
				h-0.06v0.14h0.06v0.05h-0.04v0.02l0,0l-0.04-0.05h-0.15l0.07,0.1l0.08,0.05l0.26,0v0l0,0l0,0v0l0.26,0l0.08-0.05l0.07-0.1h-0.15
				L129.82,14.15z M129.71,13.97h0.05c0.01,0,0.02,0,0.04,0l0.01,0v0.07h-0.06h-0.04V13.97z M129.72,14.08v0.05h-0.04v0.02l-0.04,0
				v-0.02h-0.02v-0.05H129.72z M129.55,13.97l0.01,0c0.02,0,0.03-0.01,0.04-0.01c0.01,0,0.02,0.01,0.04,0.01l0.01,0v0.07h-0.05
				h-0.05V13.97z M129.57,14.08v0.05h-0.03v0.02l-0.04,0v-0.02h-0.03v-0.05H129.57z M129.39,14.04v-0.07h0.1v0.07h-0.05H129.39z
				 M129.94,14.13l-0.03,0.04l-0.07,0.04l-0.25,0l-0.25,0l-0.07-0.04l-0.03-0.04h0.07l0.04,0.05l0.05,0v-0.02h0.06v0.02l0.1,0v-0.02
				h0.02h0h0.02v0.02l0.1,0v-0.02h0.06v0.02l0.05,0l0.04-0.05H129.94z"/>
			<path class="st0" d="M129.05,9.13C129.05,9.13,129.05,9.13,129.05,9.13C129.05,9.12,129.05,9.13,129.05,9.13z"/>
		</g>
	</g>
	<g>
		
			<rect x="126.96" y="22.87" transform="matrix(-1.727741e-06 -1 1 -1.727741e-06 102.2463 152.4514)" class="st1" width="0.77" height="4.46"/>
		
			<rect x="130.31" y="23.99" transform="matrix(-1.727742e-06 -1 1 -1.727742e-06 105.5915 155.7966)" class="st2" width="0.77" height="2.23"/>
		
			<rect x="132.54" y="23.99" transform="matrix(-1.727733e-06 -1 1 -1.727733e-06 107.8204 158.0256)" class="st3" width="0.77" height="2.23"/>
	</g>
</g>
</svg>
